<svg xmlns="http://www.w3.org/2000/svg" xmlns:xlink="http://www.w3.org/1999/xlink" xmlns:ev="http://www.w3.org/2001/xml-events" width="1132.52" height="804" viewBox="0 0 1132.52 804"><defs><path xmlns="http://www.w3.org/2000/svg" id="txtPath376.1" d="M341.7,207.7L341.7,207.7C335.6,270.8,290.3,322.4,230.4,337.7"/><path xmlns="http://www.w3.org/2000/svg" id="txtPath377.1" d="M225.4,338.9L225.4,338.9C215,341.2,204.3,342.4,193.3,342.4C140.3,342.4,93.8,314.8,67.4,273.2"/><path xmlns="http://www.w3.org/2000/svg" id="txtPath378.1" d="M64.6,268.8L64.6,268.8C51.6,246.7,44.1,220.8,44.1,193.3C44.1,157.1,56.9,124,78.3,98.2"/><path xmlns="http://www.w3.org/2000/svg" id="txtPath379.1" d="M81.7,94.3L81.7,94.3C109,63.5,148.9,44.1,193.3,44.1C212.6,44.1,231.1,47.8,248.1,54.5"/><path xmlns="http://www.w3.org/2000/svg" id="txtPath380.1" d="M252.9,56.5L252.9,56.5C305.6,79.5,342.4,132.1,342.4,193.3C342.4,196.4,342.3,199.5,342.1,202.5"/></defs><g transform="translate(5,5)" id="page1"><rect x="0" y="0" width="1123" height="794" fill="#ffffff"/><g transform="matrix(0.00,-1.00,1.00,0.00,404.2,539.5)" id="shape1"><path fill="#467dfe" d="M10.1,0L10.1,163.4L16.1,161.8L8,173.1L0,161.8L5.9,163.4L5.9,0L10.1,0" stroke="#467dfe"/></g><g transform="translate(734.10,103.28)" id="shape2"><path fill="#00c1de" d="M84,87.3L81.2,83.2L89.4,78.5L89.4,29.5L65,15.3L67.4,11.2L94.1,26.8L94.1,81.2L84,87.3L84,87.3ZM4.7,59.1L0,59.1L0,27.1L48.1,0L58.9,6.1L56.5,10.5L48.1,5.4L4.7,29.9L4.7,59.1L4.7,59.1ZM47,108.4L0,81.5L0,68.3L4.7,68.3L4.7,78.8L47,103L74.5,87.3L76.8,91.4L47,108.4L47,108.4ZM44,31.6L33.5,25.4L33.5,21.7L47.4,13.5L60.9,21.7L60.9,25.4L50.8,31.6L50.4,35.3L47.4,33.3L44,35.3L44,31.6ZM65.3,56L65.3,43.8L54.8,37.7L54.8,33.9L68.4,26.1L82.3,33.9L82.3,49.9L68.4,57.7L65.3,56L65.3,56ZM33.5,86.6L33.5,71L36.5,69L47,75.1L57.9,69L60.9,70.7L60.9,86.6L47,94.8L33.5,86.6L33.5,86.6ZM65.3,80.5L65.3,68.3L61.9,66.2L65.3,64.5L65.3,60.8L68.4,62.8L78.9,56.7L82.3,58.4L82.3,74.4L68.4,82.2L65.3,80.5ZM33.5,62.2L33.5,46.2L47.4,38.4L60.9,46.2L60.9,62.2L47,70L33.5,62.2L33.5,62.2ZM11.8,74.4L12.1,58.4L15.2,56.7L25.7,62.8L29.1,60.8L29.1,64.5L32.5,66.6L29.1,68.3L29.1,80.5L25.7,82.2L11.8,74.4ZM11.8,49.9L12.1,33.9L26,26.1L39.6,33.9L39.6,37.7L29.1,43.8L29.1,55.7L25.7,57.7L11.8,49.9Z"/></g><g transform="translate(588.56,353.48)" id="group3"><g transform="translate(-0.38,-0.37)" id="group4"><g transform="translate(-0.30,0.20)" id="shape5"><path fill="#ffd78e" d="M386.5,196.6C385.1,279.9,331.1,350.3,256.2,376L230.4,337.7L227.4,292.5L227.4,292.5C268.1,278.5,297.5,240.3,298.2,195.1L341.7,207.7L386.5,196.6Z"/><text xmlns="http://www.w3.org/2000/svg" dominant-baseline="ideographic" text-anchor="middle"><textPath xmlns="http://www.w3.org/2000/svg" xmlns:xlink="http://www.w3.org/1999/xlink" xlink:href="#txtPath376.1" startOffset="50%"><tspan xmlns="http://www.w3.org/2000/svg" fill="rgb(255, 255, 255)" style="font-family: Arial; font-size: 14pt;" dy="10.5">Goldman Contract</tspan></textPath></text></g><g transform="translate(-0.30,0.20)" id="shape6"><path fill="#accfff" d="M249.8,378.1C231.9,383.6,212.9,386.6,193.3,386.6C130.2,386.6,74.1,356.3,38.9,309.6L67.4,273.2L109.4,256.4L109.4,256.4C128.6,281.8,159,298.3,193.3,298.3C204,298.3,214.3,296.7,224,293.7L225.4,338.9L249.8,378.1Z"/><text xmlns="http://www.w3.org/2000/svg" dominant-baseline="ideographic" text-anchor="middle"><textPath xmlns="http://www.w3.org/2000/svg" xmlns:xlink="http://www.w3.org/1999/xlink" xlink:href="#txtPath377.1" startOffset="50%"><tspan xmlns="http://www.w3.org/2000/svg" fill="rgb(255, 255, 255)" style="font-family: Arial; font-size: 14pt;" dy="10.5">Barclays Contract</tspan></textPath></text></g><g transform="translate(-0.30,0.20)" id="shape7"><path fill="#feb67e" d="M34.9,304.1C12.9,272.7,0,234.5,0,193.3C0,152,12.9,113.8,34.9,82.4L78.3,98.2L107.2,133L107.2,133C95.3,150.1,88.3,170.8,88.3,193.3C88.3,215.7,95.3,236.4,107.2,253.5L64.6,268.8L34.9,304.1Z"/><text xmlns="http://www.w3.org/2000/svg" dominant-baseline="ideographic" text-anchor="middle"><textPath xmlns="http://www.w3.org/2000/svg" xmlns:xlink="http://www.w3.org/1999/xlink" xlink:href="#txtPath378.1" startOffset="50%"><tspan xmlns="http://www.w3.org/2000/svg" fill="rgb(255, 255, 255)" style="font-family: Arial; font-size: 14pt;" dy="10.5">BNY Contract</tspan></textPath></text></g><g transform="translate(-0.30,0.20)" id="shape8"><path fill="#89a3fe" d="M38.9,76.9C74.2,30.2,130.2,0,193.3,0C212.9,0,232,2.9,249.8,8.4L248.1,54.5L224,92.8L224,92.8C214.3,89.8,203.9,88.3,193.3,88.3C159,88.3,128.6,104.7,109.4,130.1L81.7,94.3L38.9,76.9Z"/><text xmlns="http://www.w3.org/2000/svg" dominant-baseline="ideographic" text-anchor="middle"><textPath xmlns="http://www.w3.org/2000/svg" xmlns:xlink="http://www.w3.org/1999/xlink" xlink:href="#txtPath379.1" startOffset="50%"><tspan xmlns="http://www.w3.org/2000/svg" fill="rgb(255, 255, 255)" style="font-family: Arial; font-size: 14pt;" dy="10.5">Citi Contract</tspan></textPath></text></g><g transform="translate(-0.30,0.20)" id="shape9"><path fill="#ffa3a0" d="M256.2,10.5C331.1,36.2,385.1,106.7,386.5,189.9L342.1,202.5L298.2,191.4L298.2,191.4C297.5,146.2,268.1,108,227.4,94L252.9,56.5L256.2,10.5Z"/><text xmlns="http://www.w3.org/2000/svg" dominant-baseline="ideographic" text-anchor="middle"><textPath xmlns="http://www.w3.org/2000/svg" xmlns:xlink="http://www.w3.org/1999/xlink" xlink:href="#txtPath380.1" startOffset="50%"><tspan xmlns="http://www.w3.org/2000/svg" fill="rgb(0, 0, 0)" style="font-family: Arial; font-size: 14pt;" dy="10.5">JP Cotnract</tspan></textPath></text></g></g><g transform="translate(113.08,149.33)" id="shape10"><text xmlns="http://www.w3.org/2000/svg" xml:space="preserve"><tspan x="24.516750000000002" y="48.37754999999941" textLength="110.046875" style="fill:rgb(69, 69, 69);font-family:&quot;Microsoft YaHei&quot;;font-size:18pt;font-weight:bold;">Blockchain</tspan></text></g></g><g transform="matrix(1.00,0.01,-0.01,1.00,176.2,325.5)" id="group11"><g transform="translate(-0.00,0.00)" id="shape12"><path stroke="#467dfe" d="M11.3,0L177,0C183.2,0,188.3,5,188.3,11.3L188.3,399.6C188.3,405.9,183.2,410.9,177,410.9L11.3,410.9C5,410.9,0,405.9,0,399.6L0,11.3C0,5,5,0,11.3,0Z" fill="none"/></g></g><g transform="matrix(1.00,0.01,-0.01,1.00,234.2,440.9)" id="group13"/><g transform="matrix(0.00,1.00,-1.00,0.00,577.3,552.9)" id="shape14"><path fill="#467dfe" d="M10.1,0L10.1,163.4L16.1,161.8L8,173.1L0,161.8L5.9,163.4L5.9,0L10.1,0" stroke="#467dfe"/></g><g transform="matrix(0.00,1.00,1.00,0.00,802.1,211.7)" id="shape15"><text xmlns="http://www.w3.org/2000/svg" transform="matrix(1.00,0.00,0.00,-1.00,0.0,40.9)" xml:space="preserve"><tspan x="4.7929631616595" y="24.8578269694655" textLength="129.296875" style="fill:rgb(69, 69, 69);font-family:&quot;Microsoft YaHei&quot;;font-size:12pt;font-weight:bold;">Issue Stablecoin</tspan></text></g><g transform="matrix(1.00,0.00,0.00,-1.00,408.5,523.3)" id="shape16"><text xmlns="http://www.w3.org/2000/svg" transform="matrix(1.00,0.00,0.00,-1.00,0.0,40.9)" xml:space="preserve"><tspan x="4.281925946918506" y="24.8604703147355" textLength="155.984375" style="fill:rgb(69, 69, 69);font-family:&quot;Microsoft YaHei&quot;;font-size:12pt;font-weight:bold;">Upload Receivables</tspan></text></g><g transform="matrix(1.00,0.00,0.00,-1.00,412.7,610.0)" id="shape17"><text xmlns="http://www.w3.org/2000/svg" transform="matrix(1.00,0.00,0.00,-1.00,0.0,40.9)" xml:space="preserve"><tspan x="21.594425946918506" y="24.8604703147355" textLength="121.375" style="fill:rgb(69, 69, 69);font-family:&quot;Microsoft YaHei&quot;;font-size:12pt;font-weight:bold;">Settle Payables</tspan></text></g><g transform="translate(228.72,513.39)" id="group18"/><g transform="translate(228.72,593.57)" id="group19"/><g transform="translate(186.31,570.22)" id="group20"><g transform="translate(100.24,1.07)" id="shape21"><path fill="#c5dcff" d="M26.3,60.8C25.5,60.8,24.7,60.6,23.9,60.2L16.6,55.7C15.5,55,15.9,54.9,16.4,54.7C17.8,54.2,18.1,54.1,19.7,53.1C19.9,52.9,20,53.1,20.2,53.1L25.8,56.5C26,56.6,26.3,56.6,26.4,56.5L48.2,43.6C48.4,43.4,48.5,43.3,48.5,43L48.5,17.4C48.5,17.1,48.4,16.9,48.2,16.8L26.4,3.9C26.3,3.8,26,3.8,25.8,3.9L4,16.8C3.9,16.9,3.7,17.1,3.7,17.4L3.7,43.1C3.7,43.4,3.9,43.6,4,43.8L10,47.3C13.3,48.9,15.2,47,15.2,45.1L15.2,19.5C15.2,19.2,15.5,18.9,15.8,18.9L18.6,18.9C18.9,18.9,19.2,19.2,19.2,19.5L19.2,45.1C19.2,49.6,16.9,52,12.8,52C11.5,52,10.6,52,7.8,50.5L2.1,47.1C0.7,46.3,0,44.9,0,43.1L0,17.4C0,15.8,0.9,14.2,2.3,13.4L24.1,0.6C25.5,-0.3,27.4,-0.3,28.6,0.6L50.4,13.4C51.8,14.2,52.8,15.8,52.8,17.4L52.8,43.1C52.8,44.7,51.8,46.3,50.4,47.1L28.6,60C27.9,60.6,27.1,60.8,26.3,60.8ZM43.8,35.4C43.8,30.6,40.7,29.3,34,28.3C27.2,27.4,26.4,26.9,26.4,25.3C26.4,24,27.1,22.1,32.1,22.1C36.6,22.1,38.2,23,39,26.1C39,26.4,39.3,26.6,39.6,26.6L42.4,26.6C42.6,26.6,42.7,26.6,42.9,26.4C43.1,26.3,43.1,26.1,43.1,25.9C42.6,20.6,39.1,18.1,32.1,18.1C25.8,18.1,22.2,20.8,22.2,25.3C22.2,30.1,26,31.6,31.9,32.2C39.1,32.8,39.6,34,39.6,35.4C39.6,38,37.6,38.9,33,38.9C27.2,38.9,26,37.5,25.5,34.5C25.5,34.1,25.2,34,24.9,34L22.1,34C21.7,34,21.4,34.3,21.4,34.6C21.4,38.3,23.5,42.8,33,42.8C39.9,43,43.8,40.2,43.8,35.4Z"/></g><g transform="translate(-9.00,0.00)" id="shape22"><text xmlns="http://www.w3.org/2000/svg" xml:space="preserve"><tspan x="12.766374999999996" y="32.91490000000118" textLength="77.28125" style="fill:rgb(69, 69, 69);font-family:&quot;Microsoft YaHei&quot;;font-size:14pt;font-weight:bold;">Barclays</tspan></text></g></g><g transform="translate(188.80,494.51)" id="group23"><g transform="matrix(1.00,0.01,-0.01,1.00,100.5,1.6)" id="shape24"><path fill="#ffe2b3" d="M26.3,60.8C25.5,60.8,24.7,60.6,23.9,60.2L16.6,55.7C15.5,55,15.9,54.9,16.4,54.7C17.8,54.2,18.1,54,19.7,53.1C19.9,52.9,20,53.1,20.2,53.1L25.8,56.5C26,56.6,26.3,56.6,26.4,56.5L48.2,43.6C48.4,43.4,48.5,43.3,48.5,43L48.5,17.4C48.5,17.1,48.4,16.9,48.2,16.8L26.4,3.9C26.3,3.8,26,3.8,25.8,3.9L4,16.8C3.9,16.9,3.7,17.1,3.7,17.4L3.7,43.1C3.7,43.4,3.9,43.6,4,43.8L10,47.3C13.3,48.9,15.2,47,15.2,45.1L15.2,19.5C15.2,19.2,15.5,18.9,15.8,18.9L18.6,18.9C18.9,18.9,19.2,19.2,19.2,19.5L19.2,45.1C19.2,49.6,16.9,52,12.8,52C11.5,52,10.6,52,7.8,50.5L2.1,47.1C0.7,46.3,0,44.9,0,43.1L0,17.4C0,15.8,0.9,14.2,2.3,13.4L24.1,0.6C25.5,-0.3,27.4,-0.3,28.6,0.6L50.4,13.4C51.8,14.2,52.8,15.8,52.8,17.4L52.8,43.1C52.8,44.7,51.8,46.3,50.4,47.1L28.6,60C27.9,60.6,27.1,60.8,26.3,60.8ZM43.8,35.4C43.8,30.6,40.7,29.3,34,28.3C27.2,27.4,26.4,26.9,26.4,25.3C26.4,24,27.1,22.1,32.1,22.1C36.6,22.1,38.2,23,39,26.1C39,26.4,39.3,26.6,39.6,26.6L42.4,26.6C42.6,26.6,42.7,26.6,42.9,26.4C43.1,26.3,43.1,26.1,43.1,25.9C42.6,20.6,39.1,18.1,32.1,18.1C25.8,18.1,22.2,20.8,22.2,25.3C22.2,30.1,26,31.6,31.9,32.2C39.1,32.8,39.6,34,39.6,35.4C39.6,38,37.6,38.9,33,38.9C27.2,38.9,26,37.5,25.5,34.4C25.5,34.1,25.2,34,24.9,34L22.1,34C21.7,34,21.4,34.3,21.4,34.6C21.4,38.3,23.5,42.8,33,42.8C39.9,43,43.8,40.2,43.8,35.4Z"/></g><g transform="matrix(1.00,0.01,-0.01,1.00,-8.7,0.0)" id="shape25"><text xmlns="http://www.w3.org/2000/svg" xml:space="preserve"><tspan x="8.561750000000004" y="32.91390000000119" textLength="85.6875" style="fill:rgb(69, 69, 69);font-family:&quot;Microsoft YaHei&quot;;font-size:14pt;font-weight:bold;">Goldman</tspan></text></g></g><g transform="translate(186.31,645.27)" id="group26"><g transform="translate(100.24,1.07)" id="shape27"><path fill="#feccab" d="M26.3,60.8C25.5,60.8,24.7,60.6,23.9,60.2L16.6,55.7C15.5,55,15.9,54.9,16.4,54.7C17.8,54.2,18.1,54.1,19.7,53.1C19.9,52.9,20,53.1,20.2,53.1L25.8,56.5C26,56.6,26.3,56.6,26.4,56.5L48.2,43.6C48.4,43.4,48.5,43.3,48.5,43L48.5,17.4C48.5,17.1,48.4,16.9,48.2,16.8L26.4,3.9C26.3,3.8,26,3.8,25.8,3.9L4,16.8C3.9,16.9,3.7,17.1,3.7,17.4L3.7,43.1C3.7,43.4,3.9,43.6,4,43.8L10,47.3C13.3,48.9,15.2,47,15.2,45.1L15.2,19.5C15.2,19.2,15.5,18.9,15.8,18.9L18.6,18.9C18.9,18.9,19.2,19.2,19.2,19.5L19.2,45.1C19.2,49.6,16.9,52,12.8,52C11.5,52,10.6,52,7.8,50.5L2.1,47.1C0.7,46.3,0,44.9,0,43.1L0,17.4C0,15.8,0.9,14.2,2.3,13.4L24.1,0.6C25.5,-0.3,27.4,-0.3,28.6,0.6L50.4,13.4C51.8,14.2,52.8,15.8,52.8,17.4L52.8,43.1C52.8,44.7,51.8,46.3,50.4,47.1L28.6,60C27.9,60.6,27.1,60.8,26.3,60.8ZM43.8,35.4C43.8,30.6,40.7,29.3,34,28.3C27.2,27.4,26.4,26.9,26.4,25.3C26.4,24,27.1,22.1,32.1,22.1C36.6,22.1,38.2,23,39,26.1C39,26.4,39.3,26.6,39.6,26.6L42.4,26.6C42.6,26.6,42.7,26.6,42.9,26.4C43.1,26.3,43.1,26.1,43.1,25.9C42.6,20.6,39.1,18.1,32.1,18.1C25.8,18.1,22.2,20.8,22.2,25.3C22.2,30.1,26,31.6,31.9,32.2C39.1,32.8,39.6,34,39.6,35.4C39.6,38,37.6,38.9,33,38.9C27.2,38.9,26,37.5,25.5,34.5C25.5,34.1,25.2,34,24.9,34L22.1,34C21.7,34,21.4,34.3,21.4,34.6C21.4,38.3,23.5,42.8,33,42.8C39.9,43,43.8,40.2,43.8,35.4Z"/></g><g transform="translate(-9.00,0.00)" id="shape28"><text xmlns="http://www.w3.org/2000/svg" xml:space="preserve"><tspan x="31.047624999999996" y="32.91490000000118" textLength="40.703125" style="fill:rgb(69, 69, 69);font-family:&quot;Microsoft YaHei&quot;;font-size:14pt;font-weight:bold;">BNY</tspan></text></g></g><g transform="translate(189.00,419.46)" id="group29"><g transform="translate(100.24,1.07)" id="shape30"><path fill="#ffc0be" d="M26.3,60.8C25.5,60.8,24.7,60.6,23.9,60.2L16.6,55.7C15.5,55,15.9,54.9,16.4,54.7C17.8,54.2,18.1,54.1,19.7,53.1C19.9,52.9,20,53.1,20.2,53.1L25.8,56.5C26,56.6,26.3,56.6,26.4,56.5L48.2,43.6C48.4,43.4,48.5,43.3,48.5,43L48.5,17.4C48.5,17.1,48.4,16.9,48.2,16.8L26.4,3.9C26.3,3.8,26,3.8,25.8,3.9L4,16.8C3.9,16.9,3.7,17.1,3.7,17.4L3.7,43.1C3.7,43.4,3.9,43.6,4,43.8L10,47.3C13.3,48.9,15.2,47,15.2,45.1L15.2,19.5C15.2,19.2,15.5,18.9,15.8,18.9L18.6,18.9C18.9,18.9,19.2,19.2,19.2,19.5L19.2,45.1C19.2,49.6,16.9,52,12.8,52C11.5,52,10.6,52,7.8,50.5L2.1,47.1C0.7,46.3,0,44.9,0,43.1L0,17.4C0,15.8,0.9,14.2,2.3,13.4L24.1,0.6C25.5,-0.3,27.4,-0.3,28.6,0.6L50.4,13.4C51.8,14.2,52.8,15.8,52.8,17.4L52.8,43.1C52.8,44.7,51.8,46.3,50.4,47.1L28.6,60C27.9,60.6,27.1,60.8,26.3,60.8ZM43.8,35.4C43.8,30.6,40.7,29.3,34,28.3C27.2,27.4,26.4,26.9,26.4,25.3C26.4,24,27.1,22.1,32.1,22.1C36.6,22.1,38.2,23,39,26.1C39,26.4,39.3,26.6,39.6,26.6L42.4,26.6C42.6,26.6,42.7,26.6,42.9,26.4C43.1,26.3,43.1,26.1,43.1,25.9C42.6,20.6,39.1,18.1,32.1,18.1C25.8,18.1,22.2,20.8,22.2,25.3C22.2,30.1,26,31.6,31.9,32.2C39.1,32.8,39.6,34,39.6,35.4C39.6,38,37.6,38.9,33,38.9C27.2,38.9,26,37.5,25.5,34.5C25.5,34.1,25.2,34,24.9,34L22.1,34C21.7,34,21.4,34.3,21.4,34.6C21.4,38.3,23.5,42.8,33,42.8C39.9,43,43.8,40.2,43.8,35.4Z"/></g><g transform="translate(-9.00,0.00)" id="shape31"><text xmlns="http://www.w3.org/2000/svg" xml:space="preserve"><tspan x="40.87575" y="32.91490000000118" textLength="21.046875" style="fill:rgb(69, 69, 69);font-family:&quot;Microsoft YaHei&quot;;font-size:14pt;font-weight:bold;">JP</tspan></text></g></g><g transform="translate(189.00,350.63)" id="group32"><g transform="translate(100.24,1.07)" id="shape33"><path fill="#b0bffe" d="M26.3,60.8C25.5,60.8,24.7,60.6,23.9,60.2L16.6,55.7C15.5,55,15.9,54.9,16.4,54.7C17.8,54.2,18.1,54.1,19.7,53.1C19.9,52.9,20,53.1,20.2,53.1L25.8,56.5C26,56.6,26.3,56.6,26.4,56.5L48.2,43.6C48.4,43.4,48.5,43.3,48.5,43L48.5,17.4C48.5,17.1,48.4,16.9,48.2,16.8L26.4,3.9C26.3,3.8,26,3.8,25.8,3.9L4,16.8C3.9,16.9,3.7,17.1,3.7,17.4L3.7,43.1C3.7,43.4,3.9,43.6,4,43.8L10,47.3C13.3,48.9,15.2,47,15.2,45.1L15.2,19.5C15.2,19.2,15.5,18.9,15.8,18.9L18.6,18.9C18.9,18.9,19.2,19.2,19.2,19.5L19.2,45.1C19.2,49.6,16.9,52,12.8,52C11.5,52,10.6,52,7.8,50.5L2.1,47.1C0.7,46.3,0,44.9,0,43.1L0,17.4C0,15.8,0.9,14.2,2.3,13.4L24.1,0.6C25.5,-0.3,27.4,-0.3,28.6,0.6L50.4,13.4C51.8,14.2,52.8,15.8,52.8,17.4L52.8,43.1C52.8,44.7,51.8,46.3,50.4,47.1L28.6,60C27.9,60.6,27.1,60.8,26.3,60.8ZM43.8,35.4C43.8,30.6,40.7,29.3,34,28.3C27.2,27.4,26.4,26.9,26.4,25.3C26.4,24,27.1,22.1,32.1,22.1C36.6,22.1,38.2,23,39,26.1C39,26.4,39.3,26.6,39.6,26.6L42.4,26.6C42.6,26.6,42.7,26.6,42.9,26.4C43.1,26.3,43.1,26.1,43.1,25.9C42.6,20.6,39.1,18.1,32.1,18.1C25.8,18.1,22.2,20.8,22.2,25.3C22.2,30.1,26,31.6,31.9,32.2C39.1,32.8,39.6,34,39.6,35.4C39.6,38,37.6,38.9,33,38.9C27.2,38.9,26,37.5,25.5,34.5C25.5,34.1,25.2,34,24.9,34L22.1,34C21.7,34,21.4,34.3,21.4,34.6C21.4,38.3,23.5,42.8,33,42.8C39.9,43,43.8,40.2,43.8,35.4Z"/></g><g transform="translate(-9.00,0.00)" id="shape34"><text xmlns="http://www.w3.org/2000/svg" xml:space="preserve"><tspan x="35.7195" y="32.91490000000118" textLength="31.375" style="fill:rgb(69, 69, 69);font-family:&quot;Microsoft YaHei&quot;;font-size:14pt;font-weight:bold;">Citi</tspan></text></g></g><g transform="matrix(0.00,-1.00,-1.00,0.00,149.7,732.2)" id="shape35"><text xmlns="http://www.w3.org/2000/svg" transform="matrix(1.00,0.00,0.00,-1.00,0.0,40.9)" xml:space="preserve"><tspan x="48.34260997854099" y="24.748476969466687" textLength="308.59375" style="fill:rgb(69, 69, 69);font-family:&quot;Microsoft YaHei&quot;;font-size:14pt;font-weight:bold;">Dedicated proClaim Applications</tspan></text></g><g transform="matrix(1.00,0.00,0.00,-1.00,828.3,183.7)" id="shape36"><text xmlns="http://www.w3.org/2000/svg" transform="matrix(1.00,0.00,0.00,-1.00,0.0,52.3)" xml:space="preserve"><tspan x="12.641988325402494" y="30.459274821174187" textLength="130.703125" style="fill:rgb(69, 69, 69);font-family:&quot;Microsoft YaHei&quot;;font-size:14pt;font-weight:bold;">proClaim Hub</tspan></text></g><g transform="matrix(-1.00,0.00,0.00,1.00,802.1,227.6)" id="shape37"><path fill="#467dfe" d="M26.3,0L26.3,82.3L41.8,78.2L20.9,107.5L0,78.2L15.4,82.3L15.4,0L26.3,0" stroke="#467dfe"/></g><g transform="translate(364.50,113.00)" id="group38"><g transform="matrix(-0.47,-0.88,0.88,-0.47,23.5,230.2)" id="shape39"><path fill="#467dfe" d="M10.1,0L10.1,346L16.1,344.4L8,355.7L0,344.4L5.9,346L5.9,0L10.1,0" stroke="#467dfe"/></g><g transform="matrix(0.88,-0.47,-0.47,-0.88,43.3,256.5)" id="shape40"><text xmlns="http://www.w3.org/2000/svg" transform="matrix(1.00,0.00,0.00,-1.00,0.0,40.9)" xml:space="preserve"><tspan x="96.45807248915699" y="24.859832874358" textLength="153.328125" style="fill:rgb(69, 69, 69);font-family:&quot;Microsoft YaHei&quot;;font-size:12pt;font-weight:bold;">Request Stablecoin</tspan></text></g></g><g transform="translate(37.74,33.00)" id="shape41"><text xmlns="http://www.w3.org/2000/svg" xml:space="preserve"><tspan x="340.453125" y="47.5" textLength="367.09375" style="fill:rgb(69, 69, 69);font-family:&quot;Microsoft YaHei&quot;;font-size:20pt;font-weight:bold;">proClaim MVP Architecture</tspan></text></g></g></svg>