<svg xmlns="http://www.w3.org/2000/svg" xmlns:xlink="http://www.w3.org/1999/xlink" xmlns:ev="http://www.w3.org/2001/xml-events" width="1132.51968503937" height="804" viewBox="0 0 1132.51968503937 804"><defs/><g transform="translate(5,5)" id="page2"><rect x="0" y="0" width="1123" height="794" fill="#ffffff"/><g transform="translate(53.52,51.75)" id="shape1"><text xmlns="http://www.w3.org/2000/svg" xml:space="preserve"><tspan x="415.34375" y="47.5" textLength="217.296875" style="fill:rgb(69, 69, 69);font-family:&quot;Microsoft YaHei&quot;;font-size:20pt;font-weight:bold;">Smart Contracts</tspan></text></g><g transform="translate(112.76,641.77)" id="group2"><g transform="translate(63.51,26.33)" id="shape3"><path fill="#263238" d="M17,34C7.6,34,0,26.4,0,17C0,7.6,7.6,0,17,0C26.4,0,34,7.6,34,17C34,26.4,26.4,34,17,34ZM17,1.6C8.5,1.6,1.6,8.5,1.6,17C1.6,25.5,8.5,32.4,17,32.4C25.5,32.4,32.4,25.5,32.4,17C32.4,8.5,25.5,1.6,17,1.6Z"/></g><g transform="translate(4.65,0.00)" id="shape4"><path fill="#263238" d="M2.4,78.4C1.9,78.4,1.6,78,1.6,77.6L1.6,72.8C1.6,72.3,1.9,72,2.4,72C2.8,72,3.2,72.3,3.2,72.8L3.2,77.6C3.2,78,2.8,78.4,2.4,78.4ZM18.4,78.4C18,78.4,17.6,78,17.6,77.6L17.6,72.8C17.6,72.3,18,72,18.4,72C18.9,72,19.2,72.3,19.2,72.8L19.2,77.6C19.2,78,18.9,78.4,18.4,78.4ZM10.4,86.4C10,86.4,9.6,86.1,9.6,85.6L9.6,80.8C9.6,80.3,10,80,10.4,80C10.8,80,11.2,80.3,11.2,80.8L11.2,85.6C11.2,86.1,10.8,86.4,10.4,86.4ZM18.4,86.4C18,86.4,17.6,86.1,17.6,85.6L17.6,80.8C17.6,80.3,18,80,18.4,80C18.9,80,19.2,80.3,19.2,80.8L19.2,85.6C19.2,86.1,18.9,86.4,18.4,86.4ZM10.4,78.4C9.1,78.4,8,77.3,8,76L8,74.4C8,73,9.1,72,10.4,72C11.7,72,12.8,73,12.8,74.4L12.8,76C12.8,77.3,11.7,78.4,10.4,78.4ZM10.4,73.6C10,73.6,9.6,73.9,9.6,74.4L9.6,76C9.6,76.4,10,76.8,10.4,76.8C10.8,76.8,11.2,76.4,11.2,76L11.2,74.4C11.2,73.9,10.8,73.6,10.4,73.6ZM2.4,86.4C1,86.4,0,85.3,0,84L0,82.4C0,81.1,1,80,2.4,80C3.7,80,4.8,81.1,4.8,82.4L4.8,84C4.8,85.3,3.7,86.4,2.4,86.4ZM2.4,81.6C1.9,81.6,1.6,82,1.6,82.4L1.6,84C1.6,84.4,1.9,84.8,2.4,84.8C2.8,84.8,3.2,84.4,3.2,84L3.2,82.4C3.2,82,2.8,81.6,2.4,81.6ZM2.4,94.4C1,94.4,0,93.4,0,92L0,90.4C0,89.1,1,88,2.4,88C3.7,88,4.8,89.1,4.8,90.4L4.8,92C4.8,93.4,3.7,94.4,2.4,94.4ZM2.4,89.6C1.9,89.6,1.6,90,1.6,90.4L1.6,92C1.6,92.5,1.9,92.8,2.4,92.8C2.8,92.8,3.2,92.5,3.2,92L3.2,90.4C3.2,90,2.8,89.6,2.4,89.6ZM10.4,94.4C9.1,94.4,8,93.4,8,92L8,90.4C8,89.1,9.1,88,10.4,88C11.7,88,12.8,89.1,12.8,90.4L12.8,92C12.8,93.4,11.7,94.4,10.4,94.4ZM10.4,89.6C10,89.6,9.6,90,9.6,90.4L9.6,92C9.6,92.5,10,92.8,10.4,92.8C10.8,92.8,11.2,92.5,11.2,92L11.2,90.4C11.2,90,10.8,89.6,10.4,89.6ZM18.4,94.4C17.1,94.4,16,93.4,16,92L16,90.4C16,89.1,17.1,88,18.4,88C19.8,88,20.8,89.1,20.8,90.4L20.8,92C20.8,93.4,19.8,94.4,18.4,94.4ZM18.4,89.6C18,89.6,17.6,90,17.6,90.4L17.6,92C17.6,92.5,18,92.8,18.4,92.8C18.9,92.8,19.2,92.5,19.2,92L19.2,90.4C19.2,90,18.9,89.6,18.4,89.6ZM2.4,56.7C1.9,56.7,1.6,56.3,1.6,55.9L1.6,54.3C1.6,53.9,1.9,53.5,2.4,53.5C2.8,53.5,3.2,53.9,3.2,54.3L3.2,55.9C3.2,56.3,2.8,56.7,2.4,56.7ZM2.4,51.9C1.9,51.9,1.6,51.5,1.6,51.1L1.6,28.6C1.6,28.2,1.9,27.8,2.4,27.8C2.8,27.8,3.2,28.2,3.2,28.6L3.2,51.1C3.2,51.5,2.8,51.9,2.4,51.9ZM84.3,67.9C83.9,67.9,83.5,67.6,83.5,67.1L83.5,65.5C83.5,65.1,83.9,64.7,84.3,64.7C84.8,64.7,85.1,65.1,85.1,65.5L85.1,67.1C85.1,67.6,84.8,67.9,84.3,67.9ZM84.3,93.6C83.9,93.6,83.5,93.3,83.5,92.8L83.5,70.4C83.5,69.9,83.9,69.6,84.3,69.6C84.8,69.6,85.1,69.9,85.1,70.4L85.1,92.8C85.1,93.3,84.8,93.6,84.3,93.6ZM25.7,17.4L10.4,17.4C10.1,17.4,9.8,17.2,9.7,16.9C9.5,16.6,9.6,16.2,9.8,16L25.1,0.8C25.1,0.4,25.3,0.1,25.7,0C26,0,26.4,0,26.6,0.4C26.8,0.7,26.7,1.1,26.5,1.3L26.5,16.6C26.5,17,26.1,17.4,25.7,17.4ZM12.3,15.8L24.9,15.8L24.9,3.3L12.3,15.8Z"/></g><g transform="translate(24.78,22.46)" id="shape5"><path fill="#ff5252" d="M7.7,9.2L1.5,9.2C0.6,9.2,0,8.6,0,7.7L0,1.5C0,0.6,0.6,0,1.5,0L7.7,0C8.6,0,9.2,0.6,9.2,1.5L9.2,7.7C9.2,8.6,8.6,9.2,7.7,9.2Z"/></g><g transform="translate(23.23,21.69)" id="shape6"><path fill="#263238" d="M8.9,10.8L2.4,10.8C1,10.8,0,9.8,0,8.5L0,2.3C0,1,1,0,2.4,0L8.9,0C10.2,0,11.3,1,11.3,2.3L11.3,8.5C11.3,9.8,10.2,10.8,8.9,10.8ZM2.4,1.5C1.9,1.5,1.6,1.8,1.6,2.3L1.6,8.5C1.6,8.9,1.9,9.2,2.4,9.2L8.9,9.2C9.3,9.2,9.7,8.9,9.7,8.5L9.7,2.3C9.7,1.8,9.3,1.5,8.9,1.5L2.4,1.5ZM44.1,6.1L19.7,6.1C19.3,6.1,18.9,5.8,18.9,5.4C18.9,4.9,19.3,4.6,19.7,4.6L44.1,4.6C44.5,4.6,44.9,4.9,44.9,5.4C44.9,5.8,44.5,6.1,44.1,6.1Z"/></g><g transform="translate(24.78,38.73)" id="shape7"><path fill="#ff5252" d="M7.7,9.2L1.5,9.2C0.6,9.2,0,8.6,0,7.7L0,1.5C0,0.6,0.6,0,1.5,0L7.7,0C8.6,0,9.2,0.6,9.2,1.5L9.2,7.7C9.2,8.6,8.6,9.2,7.7,9.2Z"/></g><g transform="translate(23.23,37.95)" id="shape8"><path fill="#263238" d="M8.8,10.8L2.4,10.8C1,10.8,0,9.8,0,8.5L0,2.3C0,1,1,0,2.4,0L8.8,0C10.2,0,11.2,1,11.2,2.3L11.2,8.5C11.2,9.8,10.2,10.8,8.8,10.8ZM2.4,1.5C1.9,1.5,1.6,1.8,1.6,2.3L1.6,8.5C1.6,8.9,1.9,9.2,2.4,9.2L8.8,9.2C9.3,9.2,9.6,8.9,9.6,8.5L9.6,2.3C9.6,1.8,9.3,1.5,8.8,1.5L2.4,1.5ZM37.9,6.1L19.6,6.1C19.1,6.1,18.8,5.8,18.8,5.4C18.8,4.9,19.1,4.6,19.6,4.6L37.9,4.6C38.3,4.6,38.7,4.9,38.7,5.4C38.7,5.8,38.3,6.1,37.9,6.1Z"/></g><g transform="translate(24.78,54.22)" id="shape9"><path fill="#ff5252" d="M7.7,9.2L1.5,9.2C0.6,9.2,0,8.6,0,7.7L0,1.5C0,0.6,0.6,0,1.5,0L7.7,0C8.6,0,9.2,0.6,9.2,1.5L9.2,7.7C9.2,8.6,8.6,9.2,7.7,9.2Z"/></g><g transform="translate(24.01,52.67)" id="shape10"><path fill="#263238" d="M8.7,11.3L2.3,11.3C1,11.3,0,10.2,0,8.9L0,2.4C0,1,1,0,2.3,0L8.7,0C10,0,11.1,1,11.1,2.4L11.1,8.9C11.1,10.2,10,11.3,8.7,11.3ZM2.3,1.6C1.9,1.6,1.5,1.9,1.5,2.4L1.5,8.9C1.5,9.3,1.9,9.7,2.3,9.7L8.7,9.7C9.1,9.7,9.5,9.3,9.5,8.9L9.5,2.4C9.5,1.9,9.1,1.6,8.7,1.6L2.3,1.6ZM43.2,6.4L19.3,6.4C18.9,6.4,18.5,6.1,18.5,5.6C18.5,5.2,18.9,4.8,19.3,4.8L43.2,4.8C43.6,4.8,44,5.2,44,5.6C44,6.1,43.6,6.4,43.2,6.4ZM52.5,35.6L8.7,35.6C8.3,35.6,7.9,35.2,7.9,34.8C7.9,34.3,8.3,34,8.7,34L52.5,34C54.2,34,55.7,32.5,55.7,30.7L55.7,8.9C55.7,8.4,56,8,56.5,8C56.9,8,57.3,8.4,57.3,8.9L57.3,30.7C57.3,33.4,55.1,35.6,52.5,35.6Z"/></g><g transform="translate(11.62,0.77)" id="shape11"><path fill="#263238" d="M3.9,65C3.5,65,3.1,64.7,3.1,64.2L3.1,15.8C3.1,15.6,3.2,15.4,3.3,15.3L18.4,0.2C18.5,0,18.8,0,19,0L64.9,0C67.5,0,69.7,2.1,69.7,4.7L69.7,23C69.7,23.4,69.3,23.8,68.9,23.8C68.4,23.8,68.1,23.4,68.1,23L68.1,4.7C68.1,3,66.6,1.5,64.9,1.5L19.3,1.5L4.7,16.1L4.7,64.2C4.7,64.7,4.3,65,3.9,65ZM7.1,3.9L0.7,3.9C0.3,3.9,0,3.6,0,3.1C0,2.7,0.3,2.3,0.7,2.3L7.1,2.3C7.5,2.3,7.9,2.7,7.9,3.1C7.9,3.6,7.5,3.9,7.1,3.9Z"/></g><g transform="translate(14.72,0.00)" id="shape12"><path fill="#263238" d="M0.7,7.7C0.3,7.7,0,7.3,0,6.9L0,0.7C0,0.3,0.3,0,0.7,0C1.2,0,1.5,0.3,1.5,0.7L1.5,6.9C1.5,7.3,1.2,7.7,0.7,7.7Z"/></g><g transform="translate(0.00,13.94)" id="shape13"><path fill="#263238" d="M6.9,1.5L0.7,1.5C0.3,1.5,0,1.2,0,0.7C0,0.3,0.3,0,0.7,0L6.9,0C7.3,0,7.7,0.3,7.7,0.7C7.7,1.2,7.3,1.5,6.9,1.5Z"/></g><g transform="translate(3.10,10.84)" id="shape14"><path fill="#263238" d="M0.7,7.7C0.3,7.7,0,7.3,0,6.9L0,0.7C0,0.3,0.3,0,0.7,0C1.2,0,1.5,0.3,1.5,0.7L1.5,6.9C1.5,7.3,1.2,7.7,0.7,7.7Z"/></g><g transform="translate(66.61,6.20)" id="shape15"><path fill="#263238" d="M8.5,9.2C8,9.2,7.7,8.9,7.7,8.5L7.7,2.3C7.7,1.8,7.3,1.5,6.9,1.5L0.7,1.5C0.3,1.5,0,1.2,0,0.7C0,0.3,0.3,0,0.7,0L6.9,0C8.2,0,9.2,1,9.2,2.3L9.2,8.5C9.2,8.9,8.9,9.2,8.5,9.2Z"/></g></g><g transform="translate(70.56,142.65)" id="shape16"><text xmlns="http://www.w3.org/2000/svg" xml:space="preserve"><tspan x="6.375" y="43.007799999999406" textLength="117.234375" style="fill:rgb(69, 69, 69);font-family:&quot;Microsoft YaHei&quot;;font-size:10pt;font-weight:bold;">Contract Registry</tspan></text></g><g transform="translate(810.21,142.65)" id="shape17"><text xmlns="http://www.w3.org/2000/svg" xml:space="preserve"><tspan x="4.328125" y="64.5234249999994" textLength="0" style="fill:rgb(0, 0, 0);font-family:&quot;Helvetica Neue&quot;, Helvetica, &quot;PingFang SC&quot;, &quot;Hiragino Sans GB&quot;, &quot;Microsoft YaHei&quot;, &quot;\5 FAE8F6F96C59ED1&quot;, Arial, sans-serif;font-size:10pt;font-weight:normal;">•</tspan><tspan x="4.328125" y="81.5077999999994" textLength="0" style="fill:rgb(0, 0, 0);font-family:&quot;Helvetica Neue&quot;, Helvetica, &quot;PingFang SC&quot;, &quot;Hiragino Sans GB&quot;, &quot;Microsoft YaHei&quot;, &quot;\5 FAE8F6F96C59ED1&quot;, Arial, sans-serif;font-size:10pt;font-weight:normal;">•</tspan><tspan x="22.328125" y="64.5234249999994" textLength="131.875" style="fill:rgb(69, 69, 69);font-family:&quot;Microsoft YaHei&quot;;font-size:10pt;font-weight:bold;">Issued for each CCY</tspan><tspan x="4.328125" y="98.4921749999994" textLength="0" style="fill:rgb(0, 0, 0);font-family:&quot;Helvetica Neue&quot;, Helvetica, &quot;PingFang SC&quot;, &quot;Hiragino Sans GB&quot;, &quot;Microsoft YaHei&quot;, &quot;\5 FAE8F6F96C59ED1&quot;, Arial, sans-serif;font-size:10pt;font-weight:normal;">•</tspan><tspan x="22.328125" y="81.5077999999994" textLength="131.640625" style="fill:rgb(69, 69, 69);font-family:&quot;Microsoft YaHei&quot;;font-size:10pt;font-weight:bold;">Minted by Proclaim</tspan><tspan x="22.328125" y="98.4921749999994" textLength="137.75" style="fill:rgb(69, 69, 69);font-family:&quot;Microsoft YaHei&quot;;font-size:10pt;font-weight:bold;">Distributed to banks</tspan><tspan x="4" y="114.4765499999994" textLength="0" style="fill:rgb(0, 0, 0);font-family:Arial;font-size:10pt;font-weight:normal;"></tspan></text></g><g transform="translate(804.21,142.65)" id="shape18"><path fill="#ffffff" d="M0,0L3,0L3,156L0,156L0,0Z" stroke="#000000"/></g><g transform="translate(532.67,222.45)" id="shape19"><path fill="#000000" d="M49,76L42.7,76C41.8,76,41.1,75.2,41.1,74.4L41.1,68C41.1,67.6,41.3,67.2,41.6,66.9L66.9,41.6C67.5,41,68.5,41,69.2,41.6L75.5,47.9C76.1,48.5,76.1,49.5,75.5,50.2L50.2,75.5C49.9,75.8,49.5,76,49,76ZM44.3,72.8L48.4,72.8L72.1,49L68,44.9L44.3,68.7L44.3,72.8ZM68,57C67.6,57,67.2,56.8,66.9,56.5L60.6,50.2C60,49.5,60,48.5,60.6,47.9C61.2,47.3,62.2,47.3,62.8,47.9L69.2,54.2C69.6,54.7,69.7,55.4,69.5,56C69.3,56.6,68.7,56.9,68,57ZM34.8,69.6L1.5,69.6C0.7,69.6,0,68.9,0,68L0,20.5C0,20.1,0.1,19.7,0.4,19.4L19.4,0.4C19.7,0.1,20.1,0,20.5,0L55.4,0C56.2,0,57,0.7,57,1.5L57,45.9C57,46.7,56.2,47.5,55.4,47.5C54.5,47.5,53.8,46.7,53.8,45.9L53.8,3.1L21.2,3.1L3.1,21.2L3.1,66.5L34.8,66.5C35.7,66.5,36.4,67.2,36.4,68C36.4,68.9,35.7,69.6,34.8,69.6ZM20.5,22.1L1.5,22.1C0.7,22.1,0,21.4,0,20.5C0,19.7,0.7,19,1.5,19L19,19L19,1.5C19,0.7,19.7,0,20.5,0C21.4,0,22.1,0.7,22.1,1.5L22.1,20.5C22.1,21.4,21.4,22.1,20.5,22.1ZM39.5,31.6C35.3,31.6,31.9,29.4,31.6,26.5C31.5,25.6,32.2,24.8,33,24.8C33.9,24.7,34.7,25.3,34.8,26.2C34.9,27.2,36.9,28.5,39.5,28.5C42.2,28.5,44.3,27.2,44.3,26.1C44.3,25.3,43.5,24.3,39.6,23.7L39.3,23.7C37.2,23.4,31.6,22.5,31.6,18.2C31.6,15,35.1,12.6,39.5,12.6C43.7,12.6,47.1,14.8,47.4,17.7C47.5,18.6,46.9,19.4,46,19.5C45.2,19.6,44.4,18.9,44.3,18.1C44.2,17,42.2,15.8,39.5,15.8C36.9,15.8,34.8,17.1,34.8,18.2C34.8,18.9,35.6,19.9,39.5,20.5L39.8,20.6C41.9,20.9,47.5,21.7,47.5,26.1C47.5,29.2,44,31.6,39.5,31.6ZM23.7,34.8L7.9,34.8C7,34.8,6.3,34.1,6.3,33.2C6.3,32.3,7,31.6,7.9,31.6L23.7,31.6C24.6,31.6,25.3,32.3,25.3,33.2C25.3,34.1,24.6,34.8,23.7,34.8ZM42.7,47.5L7.9,47.5C7,47.5,6.3,46.7,6.3,45.9C6.3,45,7,44.3,7.9,44.3L42.7,44.3C43.6,44.3,44.3,45,44.3,45.9C44.3,46.7,43.6,47.5,42.7,47.5ZM20.5,60.1L7.9,60.1C7,60.1,6.3,59.4,6.3,58.5C6.3,57.7,7,57,7.9,57L20.5,57C21.4,57,22.1,57.7,22.1,58.5C22.1,59.4,21.4,60.1,20.5,60.1ZM39.5,34.8C38.7,34.8,38,34.1,38,33.2L38,11C38,10.2,38.7,9.5,39.5,9.5C40.4,9.5,41.1,10.2,41.1,11L41.1,33.2C41.1,34.1,40.4,34.8,39.5,34.8Z"/></g><g transform="translate(673.21,222.45)" id="shape20"><path fill="#000000" d="M49,76L42.7,76C41.8,76,41.1,75.2,41.1,74.4L41.1,68C41.1,67.6,41.3,67.2,41.6,66.9L66.9,41.6C67.5,41,68.5,41,69.2,41.6L75.5,47.9C76.1,48.5,76.1,49.5,75.5,50.2L50.2,75.5C49.9,75.8,49.5,76,49,76ZM44.3,72.8L48.4,72.8L72.1,49L68,44.9L44.3,68.7L44.3,72.8ZM68,57C67.6,57,67.2,56.8,66.9,56.5L60.6,50.2C60,49.5,60,48.5,60.6,47.9C61.2,47.3,62.2,47.3,62.8,47.9L69.2,54.2C69.6,54.7,69.7,55.4,69.5,56C69.3,56.6,68.7,56.9,68,57ZM34.8,69.6L1.5,69.6C0.7,69.6,0,68.9,0,68L0,20.5C0,20.1,0.1,19.7,0.4,19.4L19.4,0.4C19.7,0.1,20.1,0,20.5,0L55.4,0C56.2,0,57,0.7,57,1.5L57,45.9C57,46.7,56.2,47.5,55.4,47.5C54.5,47.5,53.8,46.7,53.8,45.9L53.8,3.1L21.2,3.1L3.1,21.2L3.1,66.5L34.8,66.5C35.7,66.5,36.4,67.2,36.4,68C36.4,68.9,35.7,69.6,34.8,69.6ZM20.5,22.1L1.5,22.1C0.7,22.1,0,21.4,0,20.5C0,19.7,0.7,19,1.5,19L19,19L19,1.5C19,0.7,19.7,0,20.5,0C21.4,0,22.1,0.7,22.1,1.5L22.1,20.5C22.1,21.4,21.4,22.1,20.5,22.1ZM39.5,31.6C35.3,31.6,31.9,29.4,31.6,26.5C31.5,25.6,32.2,24.8,33,24.8C33.9,24.7,34.7,25.3,34.8,26.2C34.9,27.2,36.9,28.5,39.5,28.5C42.2,28.5,44.3,27.2,44.3,26.1C44.3,25.3,43.5,24.3,39.6,23.7L39.3,23.7C37.2,23.4,31.6,22.5,31.6,18.2C31.6,15,35.1,12.6,39.5,12.6C43.7,12.6,47.1,14.8,47.4,17.7C47.5,18.6,46.9,19.4,46,19.5C45.2,19.6,44.4,18.9,44.3,18.1C44.2,17,42.2,15.8,39.5,15.8C36.9,15.8,34.8,17.1,34.8,18.2C34.8,18.9,35.6,19.9,39.5,20.5L39.8,20.6C41.9,20.9,47.5,21.7,47.5,26.1C47.5,29.2,44,31.6,39.5,31.6ZM23.7,34.8L7.9,34.8C7,34.8,6.3,34.1,6.3,33.2C6.3,32.3,7,31.6,7.9,31.6L23.7,31.6C24.6,31.6,25.3,32.3,25.3,33.2C25.3,34.1,24.6,34.8,23.7,34.8ZM42.7,47.5L7.9,47.5C7,47.5,6.3,46.7,6.3,45.9C6.3,45,7,44.3,7.9,44.3L42.7,44.3C43.6,44.3,44.3,45,44.3,45.9C44.3,46.7,43.6,47.5,42.7,47.5ZM20.5,60.1L7.9,60.1C7,60.1,6.3,59.4,6.3,58.5C6.3,57.7,7,57,7.9,57L20.5,57C21.4,57,22.1,57.7,22.1,58.5C22.1,59.4,21.4,60.1,20.5,60.1ZM39.5,34.8C38.7,34.8,38,34.1,38,33.2L38,11C38,10.2,38.7,9.5,39.5,9.5C40.4,9.5,41.1,10.2,41.1,11L41.1,33.2C41.1,34.1,40.4,34.8,39.5,34.8Z"/></g><g transform="translate(499.67,142.45)" id="shape21"><text xmlns="http://www.w3.org/2000/svg" xml:space="preserve"><tspan x="42.75" y="34.51559999999881" textLength="34.484375" style="fill:rgb(69, 69, 69);font-family:&quot;Microsoft YaHei&quot;;font-size:10pt;font-weight:bold;">USDt</tspan><tspan x="12.5" y="51.49997499999881" textLength="95" style="fill:rgb(69, 69, 69);font-family:&quot;Microsoft YaHei&quot;;font-size:10pt;font-weight:bold;">(ERC20 token)</tspan></text></g><g transform="translate(651.21,142.45)" id="shape22"><text xmlns="http://www.w3.org/2000/svg" xml:space="preserve"><tspan x="43.578125" y="34.51559999999881" textLength="32.828125" style="fill:rgb(69, 69, 69);font-family:&quot;Microsoft YaHei&quot;;font-size:10pt;font-weight:bold;">EURt</tspan><tspan x="12.5" y="51.49997499999881" textLength="95" style="fill:rgb(69, 69, 69);font-family:&quot;Microsoft YaHei&quot;;font-size:10pt;font-weight:bold;">(ERC20 token)</tspan></text></g><g transform="translate(227.11,142.65)" id="shape23"><path fill="#ffffff" d="M0,0L3,0L3,156L0,156L0,0Z" stroke="#000000"/></g><g transform="translate(104.92,222.45)" id="group24"><g transform="matrix(1.00,0.00,0.00,1.00,0.0,0.0)" id="shape25"><path fill="#0f1f3c" d="M6.3,6.3L57.6,6.3L57.6,38L64,38L64,0L0,0L0,76L35.1,76L35.1,69.6L6.3,69.6L6.3,6.3Z"/></g><g transform="translate(13.00,12.00)" id="shape26"><path fill="#0f1f3c" d="M0,0L38.6,0L38.6,6.4L0,6.4L0,0ZM0,12.8L32.2,12.8L32.2,19.2L0,19.2L0,12.8ZM0,25.6L19.3,25.6L19.3,32.1L0,32.1L0,25.6ZM41.8,28.6L25.7,37.5L25.7,55.1L41.8,64L58,55.1L58,37.5L41.8,28.6ZM51.5,51.3L41.8,56.6L32.2,51.3L32.2,41.3L41.8,36L51.5,41.3L51.5,51.3Z"/></g><g transform="translate(52.00,55.00)" id="shape27"><path fill="#0f1f3c" d="M0,3C0,4.6,1.3,6,3,6C4.6,6,6,4.6,6,3C6,1.3,4.6,0,3,0C1.3,0,0,1.3,0,3Z"/></g></g><g transform="translate(236.50,142.65)" id="shape28"><text xmlns="http://www.w3.org/2000/svg" xml:space="preserve"><tspan x="4.328125" y="64.52324999999837" textLength="0" style="fill:rgb(0, 0, 0);font-family:&quot;Helvetica Neue&quot;, Helvetica, &quot;PingFang SC&quot;, &quot;Hiragino Sans GB&quot;, &quot;Microsoft YaHei&quot;, &quot;\5 FAE8F6F96C59ED1&quot;, Arial, sans-serif;font-size:10pt;font-weight:normal;">■</tspan><tspan x="4" y="47.53887499999837" textLength="149.421875" style="fill:rgb(69, 69, 69);font-family:&quot;Microsoft YaHei&quot;;font-size:10pt;font-weight:bold;">Stores Contracts Data:</tspan><tspan x="4.328125" y="81.50762499999837" textLength="0" style="fill:rgb(0, 0, 0);font-family:&quot;Helvetica Neue&quot;, Helvetica, &quot;PingFang SC&quot;, &quot;Hiragino Sans GB&quot;, &quot;Microsoft YaHei&quot;, &quot;\5 FAE8F6F96C59ED1&quot;, Arial, sans-serif;font-size:10pt;font-weight:normal;">■</tspan><tspan x="22.328125" y="64.52324999999837" textLength="98.015625" style="fill:rgb(69, 69, 69);font-family:&quot;Microsoft YaHei&quot;;font-size:10pt;font-weight:bold;">Issuer Address</tspan><tspan x="4.328125" y="98.49199999999837" textLength="0" style="fill:rgb(0, 0, 0);font-family:&quot;Helvetica Neue&quot;, Helvetica, &quot;PingFang SC&quot;, &quot;Hiragino Sans GB&quot;, &quot;Microsoft YaHei&quot;, &quot;\5 FAE8F6F96C59ED1&quot;, Arial, sans-serif;font-size:10pt;font-weight:normal;">■</tspan><tspan x="22.328125" y="81.50762499999837" textLength="115.984375" style="fill:rgb(69, 69, 69);font-family:&quot;Microsoft YaHei&quot;;font-size:10pt;font-weight:bold;">Contract Address</tspan><tspan x="4.328125" y="115.47637499999837" textLength="0" style="fill:rgb(0, 0, 0);font-family:&quot;Helvetica Neue&quot;, Helvetica, &quot;PingFang SC&quot;, &quot;Hiragino Sans GB&quot;, &quot;Microsoft YaHei&quot;, &quot;\5 FAE8F6F96C59ED1&quot;, Arial, sans-serif;font-size:10pt;font-weight:normal;">■</tspan><tspan x="22.328125" y="98.49199999999837" textLength="86.953125" style="fill:rgb(69, 69, 69);font-family:&quot;Microsoft YaHei&quot;;font-size:10pt;font-weight:bold;">CSD Account</tspan><tspan x="22.328125" y="115.47637499999837" textLength="48.109375" style="fill:rgb(69, 69, 69);font-family:&quot;Microsoft YaHei&quot;;font-size:10pt;font-weight:bold;">Market</tspan><tspan x="4" y="131.46074999999837" textLength="0" style="fill:rgb(0, 0, 0);font-family:Arial;font-size:10pt;font-weight:normal;"></tspan></text></g><g transform="translate(402.22,641.77)" id="group29"><g transform="translate(63.51,26.33)" id="shape30"><path fill="#263238" d="M17,34C7.6,34,0,26.4,0,17C0,7.6,7.6,0,17,0C26.4,0,34,7.6,34,17C34,26.4,26.4,34,17,34ZM17,1.6C8.5,1.6,1.6,8.5,1.6,17C1.6,25.5,8.5,32.4,17,32.4C25.5,32.4,32.4,25.5,32.4,17C32.4,8.5,25.5,1.6,17,1.6Z"/></g><g transform="translate(4.65,0.00)" id="shape31"><path fill="#263238" d="M2.4,78.4C1.9,78.4,1.6,78,1.6,77.6L1.6,72.8C1.6,72.3,1.9,72,2.4,72C2.8,72,3.2,72.3,3.2,72.8L3.2,77.6C3.2,78,2.8,78.4,2.4,78.4ZM18.4,78.4C18,78.4,17.6,78,17.6,77.6L17.6,72.8C17.6,72.3,18,72,18.4,72C18.9,72,19.2,72.3,19.2,72.8L19.2,77.6C19.2,78,18.9,78.4,18.4,78.4ZM10.4,86.4C10,86.4,9.6,86.1,9.6,85.6L9.6,80.8C9.6,80.3,10,80,10.4,80C10.8,80,11.2,80.3,11.2,80.8L11.2,85.6C11.2,86.1,10.8,86.4,10.4,86.4ZM18.4,86.4C18,86.4,17.6,86.1,17.6,85.6L17.6,80.8C17.6,80.3,18,80,18.4,80C18.9,80,19.2,80.3,19.2,80.8L19.2,85.6C19.2,86.1,18.9,86.4,18.4,86.4ZM10.4,78.4C9.1,78.4,8,77.3,8,76L8,74.4C8,73,9.1,72,10.4,72C11.7,72,12.8,73,12.8,74.4L12.8,76C12.8,77.3,11.7,78.4,10.4,78.4ZM10.4,73.6C10,73.6,9.6,73.9,9.6,74.4L9.6,76C9.6,76.4,10,76.8,10.4,76.8C10.8,76.8,11.2,76.4,11.2,76L11.2,74.4C11.2,73.9,10.8,73.6,10.4,73.6ZM2.4,86.4C1,86.4,0,85.3,0,84L0,82.4C0,81.1,1,80,2.4,80C3.7,80,4.8,81.1,4.8,82.4L4.8,84C4.8,85.3,3.7,86.4,2.4,86.4ZM2.4,81.6C1.9,81.6,1.6,82,1.6,82.4L1.6,84C1.6,84.4,1.9,84.8,2.4,84.8C2.8,84.8,3.2,84.4,3.2,84L3.2,82.4C3.2,82,2.8,81.6,2.4,81.6ZM2.4,94.4C1,94.4,0,93.4,0,92L0,90.4C0,89.1,1,88,2.4,88C3.7,88,4.8,89.1,4.8,90.4L4.8,92C4.8,93.4,3.7,94.4,2.4,94.4ZM2.4,89.6C1.9,89.6,1.6,90,1.6,90.4L1.6,92C1.6,92.5,1.9,92.8,2.4,92.8C2.8,92.8,3.2,92.5,3.2,92L3.2,90.4C3.2,90,2.8,89.6,2.4,89.6ZM10.4,94.4C9.1,94.4,8,93.4,8,92L8,90.4C8,89.1,9.1,88,10.4,88C11.7,88,12.8,89.1,12.8,90.4L12.8,92C12.8,93.4,11.7,94.4,10.4,94.4ZM10.4,89.6C10,89.6,9.6,90,9.6,90.4L9.6,92C9.6,92.5,10,92.8,10.4,92.8C10.8,92.8,11.2,92.5,11.2,92L11.2,90.4C11.2,90,10.8,89.6,10.4,89.6ZM18.4,94.4C17.1,94.4,16,93.4,16,92L16,90.4C16,89.1,17.1,88,18.4,88C19.8,88,20.8,89.1,20.8,90.4L20.8,92C20.8,93.4,19.8,94.4,18.4,94.4ZM18.4,89.6C18,89.6,17.6,90,17.6,90.4L17.6,92C17.6,92.5,18,92.8,18.4,92.8C18.9,92.8,19.2,92.5,19.2,92L19.2,90.4C19.2,90,18.9,89.6,18.4,89.6ZM2.4,56.7C1.9,56.7,1.6,56.3,1.6,55.9L1.6,54.3C1.6,53.9,1.9,53.5,2.4,53.5C2.8,53.5,3.2,53.9,3.2,54.3L3.2,55.9C3.2,56.3,2.8,56.7,2.4,56.7ZM2.4,51.9C1.9,51.9,1.6,51.5,1.6,51.1L1.6,28.6C1.6,28.2,1.9,27.8,2.4,27.8C2.8,27.8,3.2,28.2,3.2,28.6L3.2,51.1C3.2,51.5,2.8,51.9,2.4,51.9ZM84.3,67.9C83.9,67.9,83.5,67.6,83.5,67.1L83.5,65.5C83.5,65.1,83.9,64.7,84.3,64.7C84.8,64.7,85.1,65.1,85.1,65.5L85.1,67.1C85.1,67.6,84.8,67.9,84.3,67.9ZM84.3,93.6C83.9,93.6,83.5,93.3,83.5,92.8L83.5,70.4C83.5,69.9,83.9,69.6,84.3,69.6C84.8,69.6,85.1,69.9,85.1,70.4L85.1,92.8C85.1,93.3,84.8,93.6,84.3,93.6ZM25.7,17.4L10.4,17.4C10.1,17.4,9.8,17.2,9.7,16.9C9.5,16.6,9.6,16.2,9.8,16L25.1,0.8C25.1,0.4,25.3,0.1,25.7,0C26,0,26.4,0,26.6,0.4C26.8,0.7,26.7,1.1,26.5,1.3L26.5,16.6C26.5,17,26.1,17.4,25.7,17.4ZM12.3,15.8L24.9,15.8L24.9,3.3L12.3,15.8Z"/></g><g transform="translate(24.78,22.46)" id="shape32"><path fill="#ff5252" d="M7.7,9.2L1.5,9.2C0.6,9.2,0,8.6,0,7.7L0,1.5C0,0.6,0.6,0,1.5,0L7.7,0C8.6,0,9.2,0.6,9.2,1.5L9.2,7.7C9.2,8.6,8.6,9.2,7.7,9.2Z"/></g><g transform="translate(23.23,21.69)" id="shape33"><path fill="#263238" d="M8.9,10.8L2.4,10.8C1,10.8,0,9.8,0,8.5L0,2.3C0,1,1,0,2.4,0L8.9,0C10.2,0,11.3,1,11.3,2.3L11.3,8.5C11.3,9.8,10.2,10.8,8.9,10.8ZM2.4,1.5C1.9,1.5,1.6,1.8,1.6,2.3L1.6,8.5C1.6,8.9,1.9,9.2,2.4,9.2L8.9,9.2C9.3,9.2,9.7,8.9,9.7,8.5L9.7,2.3C9.7,1.8,9.3,1.5,8.9,1.5L2.4,1.5ZM44.1,6.1L19.7,6.1C19.3,6.1,18.9,5.8,18.9,5.4C18.9,4.9,19.3,4.6,19.7,4.6L44.1,4.6C44.5,4.6,44.9,4.9,44.9,5.4C44.9,5.8,44.5,6.1,44.1,6.1Z"/></g><g transform="translate(24.78,38.73)" id="shape34"><path fill="#ff5252" d="M7.7,9.2L1.5,9.2C0.6,9.2,0,8.6,0,7.7L0,1.5C0,0.6,0.6,0,1.5,0L7.7,0C8.6,0,9.2,0.6,9.2,1.5L9.2,7.7C9.2,8.6,8.6,9.2,7.7,9.2Z"/></g><g transform="translate(23.23,37.95)" id="shape35"><path fill="#263238" d="M8.8,10.8L2.4,10.8C1,10.8,0,9.8,0,8.5L0,2.3C0,1,1,0,2.4,0L8.8,0C10.2,0,11.2,1,11.2,2.3L11.2,8.5C11.2,9.8,10.2,10.8,8.8,10.8ZM2.4,1.5C1.9,1.5,1.6,1.8,1.6,2.3L1.6,8.5C1.6,8.9,1.9,9.2,2.4,9.2L8.8,9.2C9.3,9.2,9.6,8.9,9.6,8.5L9.6,2.3C9.6,1.8,9.3,1.5,8.8,1.5L2.4,1.5ZM37.9,6.1L19.6,6.1C19.1,6.1,18.8,5.8,18.8,5.4C18.8,4.9,19.1,4.6,19.6,4.6L37.9,4.6C38.3,4.6,38.7,4.9,38.7,5.4C38.7,5.8,38.3,6.1,37.9,6.1Z"/></g><g transform="translate(24.78,54.22)" id="shape36"><path fill="#ff5252" d="M7.7,9.2L1.5,9.2C0.6,9.2,0,8.6,0,7.7L0,1.5C0,0.6,0.6,0,1.5,0L7.7,0C8.6,0,9.2,0.6,9.2,1.5L9.2,7.7C9.2,8.6,8.6,9.2,7.7,9.2Z"/></g><g transform="translate(24.01,52.67)" id="shape37"><path fill="#263238" d="M8.7,11.3L2.3,11.3C1,11.3,0,10.2,0,8.9L0,2.4C0,1,1,0,2.3,0L8.7,0C10,0,11.1,1,11.1,2.4L11.1,8.9C11.1,10.2,10,11.3,8.7,11.3ZM2.3,1.6C1.9,1.6,1.5,1.9,1.5,2.4L1.5,8.9C1.5,9.3,1.9,9.7,2.3,9.7L8.7,9.7C9.1,9.7,9.5,9.3,9.5,8.9L9.5,2.4C9.5,1.9,9.1,1.6,8.7,1.6L2.3,1.6ZM43.2,6.4L19.3,6.4C18.9,6.4,18.5,6.1,18.5,5.6C18.5,5.2,18.9,4.8,19.3,4.8L43.2,4.8C43.6,4.8,44,5.2,44,5.6C44,6.1,43.6,6.4,43.2,6.4ZM52.5,35.6L8.7,35.6C8.3,35.6,7.9,35.2,7.9,34.8C7.9,34.3,8.3,34,8.7,34L52.5,34C54.2,34,55.7,32.5,55.7,30.7L55.7,8.9C55.7,8.4,56,8,56.5,8C56.9,8,57.3,8.4,57.3,8.9L57.3,30.7C57.3,33.4,55.1,35.6,52.5,35.6Z"/></g><g transform="translate(11.62,0.77)" id="shape38"><path fill="#263238" d="M3.9,65C3.5,65,3.1,64.7,3.1,64.2L3.1,15.8C3.1,15.6,3.2,15.4,3.3,15.3L18.4,0.2C18.5,0,18.8,0,19,0L64.9,0C67.5,0,69.7,2.1,69.7,4.7L69.7,23C69.7,23.4,69.3,23.8,68.9,23.8C68.4,23.8,68.1,23.4,68.1,23L68.1,4.7C68.1,3,66.6,1.5,64.9,1.5L19.3,1.5L4.7,16.1L4.7,64.2C4.7,64.7,4.3,65,3.9,65ZM7.1,3.9L0.7,3.9C0.3,3.9,0,3.6,0,3.1C0,2.7,0.3,2.3,0.7,2.3L7.1,2.3C7.5,2.3,7.9,2.7,7.9,3.1C7.9,3.6,7.5,3.9,7.1,3.9Z"/></g><g transform="translate(14.72,0.00)" id="shape39"><path fill="#263238" d="M0.7,7.7C0.3,7.7,0,7.3,0,6.9L0,0.7C0,0.3,0.3,0,0.7,0C1.2,0,1.5,0.3,1.5,0.7L1.5,6.9C1.5,7.3,1.2,7.7,0.7,7.7Z"/></g><g transform="translate(0.00,13.94)" id="shape40"><path fill="#263238" d="M6.9,1.5L0.7,1.5C0.3,1.5,0,1.2,0,0.7C0,0.3,0.3,0,0.7,0L6.9,0C7.3,0,7.7,0.3,7.7,0.7C7.7,1.2,7.3,1.5,6.9,1.5Z"/></g><g transform="translate(3.10,10.84)" id="shape41"><path fill="#263238" d="M0.7,7.7C0.3,7.7,0,7.3,0,6.9L0,0.7C0,0.3,0.3,0,0.7,0C1.2,0,1.5,0.3,1.5,0.7L1.5,6.9C1.5,7.3,1.2,7.7,0.7,7.7Z"/></g><g transform="translate(66.61,6.20)" id="shape42"><path fill="#263238" d="M8.5,9.2C8,9.2,7.7,8.9,7.7,8.5L7.7,2.3C7.7,1.8,7.3,1.5,6.9,1.5L0.7,1.5C0.3,1.5,0,1.2,0,0.7C0,0.3,0.3,0,0.7,0L6.9,0C8.2,0,9.2,1,9.2,2.3L9.2,8.5C9.2,8.9,8.9,9.2,8.5,9.2Z"/></g></g><g transform="translate(257.49,641.77)" id="group43"><g transform="translate(63.51,26.33)" id="shape44"><path fill="#263238" d="M17,34C7.6,34,0,26.4,0,17C0,7.6,7.6,0,17,0C26.4,0,34,7.6,34,17C34,26.4,26.4,34,17,34ZM17,1.6C8.5,1.6,1.6,8.5,1.6,17C1.6,25.5,8.5,32.4,17,32.4C25.5,32.4,32.4,25.5,32.4,17C32.4,8.5,25.5,1.6,17,1.6Z"/></g><g transform="translate(4.65,0.00)" id="shape45"><path fill="#263238" d="M2.4,78.4C1.9,78.4,1.6,78,1.6,77.6L1.6,72.8C1.6,72.3,1.9,72,2.4,72C2.8,72,3.2,72.3,3.2,72.8L3.2,77.6C3.2,78,2.8,78.4,2.4,78.4ZM18.4,78.4C18,78.4,17.6,78,17.6,77.6L17.6,72.8C17.6,72.3,18,72,18.4,72C18.9,72,19.2,72.3,19.2,72.8L19.2,77.6C19.2,78,18.9,78.4,18.4,78.4ZM10.4,86.4C10,86.4,9.6,86.1,9.6,85.6L9.6,80.8C9.6,80.3,10,80,10.4,80C10.8,80,11.2,80.3,11.2,80.8L11.2,85.6C11.2,86.1,10.8,86.4,10.4,86.4ZM18.4,86.4C18,86.4,17.6,86.1,17.6,85.6L17.6,80.8C17.6,80.3,18,80,18.4,80C18.9,80,19.2,80.3,19.2,80.8L19.2,85.6C19.2,86.1,18.9,86.4,18.4,86.4ZM10.4,78.4C9.1,78.4,8,77.3,8,76L8,74.4C8,73,9.1,72,10.4,72C11.7,72,12.8,73,12.8,74.4L12.8,76C12.8,77.3,11.7,78.4,10.4,78.4ZM10.4,73.6C10,73.6,9.6,73.9,9.6,74.4L9.6,76C9.6,76.4,10,76.8,10.4,76.8C10.8,76.8,11.2,76.4,11.2,76L11.2,74.4C11.2,73.9,10.8,73.6,10.4,73.6ZM2.4,86.4C1,86.4,0,85.3,0,84L0,82.4C0,81.1,1,80,2.4,80C3.7,80,4.8,81.1,4.8,82.4L4.8,84C4.8,85.3,3.7,86.4,2.4,86.4ZM2.4,81.6C1.9,81.6,1.6,82,1.6,82.4L1.6,84C1.6,84.4,1.9,84.8,2.4,84.8C2.8,84.8,3.2,84.4,3.2,84L3.2,82.4C3.2,82,2.8,81.6,2.4,81.6ZM2.4,94.4C1,94.4,0,93.4,0,92L0,90.4C0,89.1,1,88,2.4,88C3.7,88,4.8,89.1,4.8,90.4L4.8,92C4.8,93.4,3.7,94.4,2.4,94.4ZM2.4,89.6C1.9,89.6,1.6,90,1.6,90.4L1.6,92C1.6,92.5,1.9,92.8,2.4,92.8C2.8,92.8,3.2,92.5,3.2,92L3.2,90.4C3.2,90,2.8,89.6,2.4,89.6ZM10.4,94.4C9.1,94.4,8,93.4,8,92L8,90.4C8,89.1,9.1,88,10.4,88C11.7,88,12.8,89.1,12.8,90.4L12.8,92C12.8,93.4,11.7,94.4,10.4,94.4ZM10.4,89.6C10,89.6,9.6,90,9.6,90.4L9.6,92C9.6,92.5,10,92.8,10.4,92.8C10.8,92.8,11.2,92.5,11.2,92L11.2,90.4C11.2,90,10.8,89.6,10.4,89.6ZM18.4,94.4C17.1,94.4,16,93.4,16,92L16,90.4C16,89.1,17.1,88,18.4,88C19.8,88,20.8,89.1,20.8,90.4L20.8,92C20.8,93.4,19.8,94.4,18.4,94.4ZM18.4,89.6C18,89.6,17.6,90,17.6,90.4L17.6,92C17.6,92.5,18,92.8,18.4,92.8C18.9,92.8,19.2,92.5,19.2,92L19.2,90.4C19.2,90,18.9,89.6,18.4,89.6ZM2.4,56.7C1.9,56.7,1.6,56.3,1.6,55.9L1.6,54.3C1.6,53.9,1.9,53.5,2.4,53.5C2.8,53.5,3.2,53.9,3.2,54.3L3.2,55.9C3.2,56.3,2.8,56.7,2.4,56.7ZM2.4,51.9C1.9,51.9,1.6,51.5,1.6,51.1L1.6,28.6C1.6,28.2,1.9,27.8,2.4,27.8C2.8,27.8,3.2,28.2,3.2,28.6L3.2,51.1C3.2,51.5,2.8,51.9,2.4,51.9ZM84.3,67.9C83.9,67.9,83.5,67.6,83.5,67.1L83.5,65.5C83.5,65.1,83.9,64.7,84.3,64.7C84.8,64.7,85.1,65.1,85.1,65.5L85.1,67.1C85.1,67.6,84.8,67.9,84.3,67.9ZM84.3,93.6C83.9,93.6,83.5,93.3,83.5,92.8L83.5,70.4C83.5,69.9,83.9,69.6,84.3,69.6C84.8,69.6,85.1,69.9,85.1,70.4L85.1,92.8C85.1,93.3,84.8,93.6,84.3,93.6ZM25.7,17.4L10.4,17.4C10.1,17.4,9.8,17.2,9.7,16.9C9.5,16.6,9.6,16.2,9.8,16L25.1,0.8C25.1,0.4,25.3,0.1,25.7,0C26,0,26.4,0,26.6,0.4C26.8,0.7,26.7,1.1,26.5,1.3L26.5,16.6C26.5,17,26.1,17.4,25.7,17.4ZM12.3,15.8L24.9,15.8L24.9,3.3L12.3,15.8Z"/></g><g transform="translate(24.78,22.46)" id="shape46"><path fill="#ff5252" d="M7.7,9.2L1.5,9.2C0.6,9.2,0,8.6,0,7.7L0,1.5C0,0.6,0.6,0,1.5,0L7.7,0C8.6,0,9.2,0.6,9.2,1.5L9.2,7.7C9.2,8.6,8.6,9.2,7.7,9.2Z"/></g><g transform="translate(23.23,21.69)" id="shape47"><path fill="#263238" d="M8.9,10.8L2.4,10.8C1,10.8,0,9.8,0,8.5L0,2.3C0,1,1,0,2.4,0L8.9,0C10.2,0,11.3,1,11.3,2.3L11.3,8.5C11.3,9.8,10.2,10.8,8.9,10.8ZM2.4,1.5C1.9,1.5,1.6,1.8,1.6,2.3L1.6,8.5C1.6,8.9,1.9,9.2,2.4,9.2L8.9,9.2C9.3,9.2,9.7,8.9,9.7,8.5L9.7,2.3C9.7,1.8,9.3,1.5,8.9,1.5L2.4,1.5ZM44.1,6.1L19.7,6.1C19.3,6.1,18.9,5.8,18.9,5.4C18.9,4.9,19.3,4.6,19.7,4.6L44.1,4.6C44.5,4.6,44.9,4.9,44.9,5.4C44.9,5.8,44.5,6.1,44.1,6.1Z"/></g><g transform="translate(24.78,38.73)" id="shape48"><path fill="#ff5252" d="M7.7,9.2L1.5,9.2C0.6,9.2,0,8.6,0,7.7L0,1.5C0,0.6,0.6,0,1.5,0L7.7,0C8.6,0,9.2,0.6,9.2,1.5L9.2,7.7C9.2,8.6,8.6,9.2,7.7,9.2Z"/></g><g transform="translate(23.23,37.95)" id="shape49"><path fill="#263238" d="M8.8,10.8L2.4,10.8C1,10.8,0,9.8,0,8.5L0,2.3C0,1,1,0,2.4,0L8.8,0C10.2,0,11.2,1,11.2,2.3L11.2,8.5C11.2,9.8,10.2,10.8,8.8,10.8ZM2.4,1.5C1.9,1.5,1.6,1.8,1.6,2.3L1.6,8.5C1.6,8.9,1.9,9.2,2.4,9.2L8.8,9.2C9.3,9.2,9.6,8.9,9.6,8.5L9.6,2.3C9.6,1.8,9.3,1.5,8.8,1.5L2.4,1.5ZM37.9,6.1L19.6,6.1C19.1,6.1,18.8,5.8,18.8,5.4C18.8,4.9,19.1,4.6,19.6,4.6L37.9,4.6C38.3,4.6,38.7,4.9,38.7,5.4C38.7,5.8,38.3,6.1,37.9,6.1Z"/></g><g transform="translate(24.78,54.22)" id="shape50"><path fill="#ff5252" d="M7.7,9.2L1.5,9.2C0.6,9.2,0,8.6,0,7.7L0,1.5C0,0.6,0.6,0,1.5,0L7.7,0C8.6,0,9.2,0.6,9.2,1.5L9.2,7.7C9.2,8.6,8.6,9.2,7.7,9.2Z"/></g><g transform="translate(24.01,52.67)" id="shape51"><path fill="#263238" d="M8.7,11.3L2.3,11.3C1,11.3,0,10.2,0,8.9L0,2.4C0,1,1,0,2.3,0L8.7,0C10,0,11.1,1,11.1,2.4L11.1,8.9C11.1,10.2,10,11.3,8.7,11.3ZM2.3,1.6C1.9,1.6,1.5,1.9,1.5,2.4L1.5,8.9C1.5,9.3,1.9,9.7,2.3,9.7L8.7,9.7C9.1,9.7,9.5,9.3,9.5,8.9L9.5,2.4C9.5,1.9,9.1,1.6,8.7,1.6L2.3,1.6ZM43.2,6.4L19.3,6.4C18.9,6.4,18.5,6.1,18.5,5.6C18.5,5.2,18.9,4.8,19.3,4.8L43.2,4.8C43.6,4.8,44,5.2,44,5.6C44,6.1,43.6,6.4,43.2,6.4ZM52.5,35.6L8.7,35.6C8.3,35.6,7.9,35.2,7.9,34.8C7.9,34.3,8.3,34,8.7,34L52.5,34C54.2,34,55.7,32.5,55.7,30.7L55.7,8.9C55.7,8.4,56,8,56.5,8C56.9,8,57.3,8.4,57.3,8.9L57.3,30.7C57.3,33.4,55.1,35.6,52.5,35.6Z"/></g><g transform="translate(11.62,0.77)" id="shape52"><path fill="#263238" d="M3.9,65C3.5,65,3.1,64.7,3.1,64.2L3.1,15.8C3.1,15.6,3.2,15.4,3.3,15.3L18.4,0.2C18.5,0,18.8,0,19,0L64.9,0C67.5,0,69.7,2.1,69.7,4.7L69.7,23C69.7,23.4,69.3,23.8,68.9,23.8C68.4,23.8,68.1,23.4,68.1,23L68.1,4.7C68.1,3,66.6,1.5,64.9,1.5L19.3,1.5L4.7,16.1L4.7,64.2C4.7,64.7,4.3,65,3.9,65ZM7.1,3.9L0.7,3.9C0.3,3.9,0,3.6,0,3.1C0,2.7,0.3,2.3,0.7,2.3L7.1,2.3C7.5,2.3,7.9,2.7,7.9,3.1C7.9,3.6,7.5,3.9,7.1,3.9Z"/></g><g transform="translate(14.72,0.00)" id="shape53"><path fill="#263238" d="M0.7,7.7C0.3,7.7,0,7.3,0,6.9L0,0.7C0,0.3,0.3,0,0.7,0C1.2,0,1.5,0.3,1.5,0.7L1.5,6.9C1.5,7.3,1.2,7.7,0.7,7.7Z"/></g><g transform="translate(0.00,13.94)" id="shape54"><path fill="#263238" d="M6.9,1.5L0.7,1.5C0.3,1.5,0,1.2,0,0.7C0,0.3,0.3,0,0.7,0L6.9,0C7.3,0,7.7,0.3,7.7,0.7C7.7,1.2,7.3,1.5,6.9,1.5Z"/></g><g transform="translate(3.10,10.84)" id="shape55"><path fill="#263238" d="M0.7,7.7C0.3,7.7,0,7.3,0,6.9L0,0.7C0,0.3,0.3,0,0.7,0C1.2,0,1.5,0.3,1.5,0.7L1.5,6.9C1.5,7.3,1.2,7.7,0.7,7.7Z"/></g><g transform="translate(66.61,6.20)" id="shape56"><path fill="#263238" d="M8.5,9.2C8,9.2,7.7,8.9,7.7,8.5L7.7,2.3C7.7,1.8,7.3,1.5,6.9,1.5L0.7,1.5C0.3,1.5,0,1.2,0,0.7C0,0.3,0.3,0,0.7,0L6.9,0C8.2,0,9.2,1,9.2,2.3L9.2,8.5C9.2,8.9,8.9,9.2,8.5,9.2Z"/></g></g><g transform="translate(546.96,641.77)" id="group57"><g transform="translate(63.51,26.33)" id="shape58"><path fill="#263238" d="M17,34C7.6,34,0,26.4,0,17C0,7.6,7.6,0,17,0C26.4,0,34,7.6,34,17C34,26.4,26.4,34,17,34ZM17,1.6C8.5,1.6,1.6,8.5,1.6,17C1.6,25.5,8.5,32.4,17,32.4C25.5,32.4,32.4,25.5,32.4,17C32.4,8.5,25.5,1.6,17,1.6Z"/></g><g transform="translate(4.65,0.00)" id="shape59"><path fill="#263238" d="M2.4,78.4C1.9,78.4,1.6,78,1.6,77.6L1.6,72.8C1.6,72.3,1.9,72,2.4,72C2.8,72,3.2,72.3,3.2,72.8L3.2,77.6C3.2,78,2.8,78.4,2.4,78.4ZM18.4,78.4C18,78.4,17.6,78,17.6,77.6L17.6,72.8C17.6,72.3,18,72,18.4,72C18.9,72,19.2,72.3,19.2,72.8L19.2,77.6C19.2,78,18.9,78.4,18.4,78.4ZM10.4,86.4C10,86.4,9.6,86.1,9.6,85.6L9.6,80.8C9.6,80.3,10,80,10.4,80C10.8,80,11.2,80.3,11.2,80.8L11.2,85.6C11.2,86.1,10.8,86.4,10.4,86.4ZM18.4,86.4C18,86.4,17.6,86.1,17.6,85.6L17.6,80.8C17.6,80.3,18,80,18.4,80C18.9,80,19.2,80.3,19.2,80.8L19.2,85.6C19.2,86.1,18.9,86.4,18.4,86.4ZM10.4,78.4C9.1,78.4,8,77.3,8,76L8,74.4C8,73,9.1,72,10.4,72C11.7,72,12.8,73,12.8,74.4L12.8,76C12.8,77.3,11.7,78.4,10.4,78.4ZM10.4,73.6C10,73.6,9.6,73.9,9.6,74.4L9.6,76C9.6,76.4,10,76.8,10.4,76.8C10.8,76.8,11.2,76.4,11.2,76L11.2,74.4C11.2,73.9,10.8,73.6,10.4,73.6ZM2.4,86.4C1,86.4,0,85.3,0,84L0,82.4C0,81.1,1,80,2.4,80C3.7,80,4.8,81.1,4.8,82.4L4.8,84C4.8,85.3,3.7,86.4,2.4,86.4ZM2.4,81.6C1.9,81.6,1.6,82,1.6,82.4L1.6,84C1.6,84.4,1.9,84.8,2.4,84.8C2.8,84.8,3.2,84.4,3.2,84L3.2,82.4C3.2,82,2.8,81.6,2.4,81.6ZM2.4,94.4C1,94.4,0,93.4,0,92L0,90.4C0,89.1,1,88,2.4,88C3.7,88,4.8,89.1,4.8,90.4L4.8,92C4.8,93.4,3.7,94.4,2.4,94.4ZM2.4,89.6C1.9,89.6,1.6,90,1.6,90.4L1.6,92C1.6,92.5,1.9,92.8,2.4,92.8C2.8,92.8,3.2,92.5,3.2,92L3.2,90.4C3.2,90,2.8,89.6,2.4,89.6ZM10.4,94.4C9.1,94.4,8,93.4,8,92L8,90.4C8,89.1,9.1,88,10.4,88C11.7,88,12.8,89.1,12.8,90.4L12.8,92C12.8,93.4,11.7,94.4,10.4,94.4ZM10.4,89.6C10,89.6,9.6,90,9.6,90.4L9.6,92C9.6,92.5,10,92.8,10.4,92.8C10.8,92.8,11.2,92.5,11.2,92L11.2,90.4C11.2,90,10.8,89.6,10.4,89.6ZM18.4,94.4C17.1,94.4,16,93.4,16,92L16,90.4C16,89.1,17.1,88,18.4,88C19.8,88,20.8,89.1,20.8,90.4L20.8,92C20.8,93.4,19.8,94.4,18.4,94.4ZM18.4,89.6C18,89.6,17.6,90,17.6,90.4L17.6,92C17.6,92.5,18,92.8,18.4,92.8C18.9,92.8,19.2,92.5,19.2,92L19.2,90.4C19.2,90,18.9,89.6,18.4,89.6ZM2.4,56.7C1.9,56.7,1.6,56.3,1.6,55.9L1.6,54.3C1.6,53.9,1.9,53.5,2.4,53.5C2.8,53.5,3.2,53.9,3.2,54.3L3.2,55.9C3.2,56.3,2.8,56.7,2.4,56.7ZM2.4,51.9C1.9,51.9,1.6,51.5,1.6,51.1L1.6,28.6C1.6,28.2,1.9,27.8,2.4,27.8C2.8,27.8,3.2,28.2,3.2,28.6L3.2,51.1C3.2,51.5,2.8,51.9,2.4,51.9ZM84.3,67.9C83.9,67.9,83.5,67.6,83.5,67.1L83.5,65.5C83.5,65.1,83.9,64.7,84.3,64.7C84.8,64.7,85.1,65.1,85.1,65.5L85.1,67.1C85.1,67.6,84.8,67.9,84.3,67.9ZM84.3,93.6C83.9,93.6,83.5,93.3,83.5,92.8L83.5,70.4C83.5,69.9,83.9,69.6,84.3,69.6C84.8,69.6,85.1,69.9,85.1,70.4L85.1,92.8C85.1,93.3,84.8,93.6,84.3,93.6ZM25.7,17.4L10.4,17.4C10.1,17.4,9.8,17.2,9.7,16.9C9.5,16.6,9.6,16.2,9.8,16L25.1,0.8C25.1,0.4,25.3,0.1,25.7,0C26,0,26.4,0,26.6,0.4C26.8,0.7,26.7,1.1,26.5,1.3L26.5,16.6C26.5,17,26.1,17.4,25.7,17.4ZM12.3,15.8L24.9,15.8L24.9,3.3L12.3,15.8Z"/></g><g transform="translate(24.78,22.46)" id="shape60"><path fill="#ff5252" d="M7.7,9.2L1.5,9.2C0.6,9.2,0,8.6,0,7.7L0,1.5C0,0.6,0.6,0,1.5,0L7.7,0C8.6,0,9.2,0.6,9.2,1.5L9.2,7.7C9.2,8.6,8.6,9.2,7.7,9.2Z"/></g><g transform="translate(23.23,21.69)" id="shape61"><path fill="#263238" d="M8.9,10.8L2.4,10.8C1,10.8,0,9.8,0,8.5L0,2.3C0,1,1,0,2.4,0L8.9,0C10.2,0,11.3,1,11.3,2.3L11.3,8.5C11.3,9.8,10.2,10.8,8.9,10.8ZM2.4,1.5C1.9,1.5,1.6,1.8,1.6,2.3L1.6,8.5C1.6,8.9,1.9,9.2,2.4,9.2L8.9,9.2C9.3,9.2,9.7,8.9,9.7,8.5L9.7,2.3C9.7,1.8,9.3,1.5,8.9,1.5L2.4,1.5ZM44.1,6.1L19.7,6.1C19.3,6.1,18.9,5.8,18.9,5.4C18.9,4.9,19.3,4.6,19.7,4.6L44.1,4.6C44.5,4.6,44.9,4.9,44.9,5.4C44.9,5.8,44.5,6.1,44.1,6.1Z"/></g><g transform="translate(24.78,38.73)" id="shape62"><path fill="#ff5252" d="M7.7,9.2L1.5,9.2C0.6,9.2,0,8.6,0,7.7L0,1.5C0,0.6,0.6,0,1.5,0L7.7,0C8.6,0,9.2,0.6,9.2,1.5L9.2,7.7C9.2,8.6,8.6,9.2,7.7,9.2Z"/></g><g transform="translate(23.23,37.95)" id="shape63"><path fill="#263238" d="M8.8,10.8L2.4,10.8C1,10.8,0,9.8,0,8.5L0,2.3C0,1,1,0,2.4,0L8.8,0C10.2,0,11.2,1,11.2,2.3L11.2,8.5C11.2,9.8,10.2,10.8,8.8,10.8ZM2.4,1.5C1.9,1.5,1.6,1.8,1.6,2.3L1.6,8.5C1.6,8.9,1.9,9.2,2.4,9.2L8.8,9.2C9.3,9.2,9.6,8.9,9.6,8.5L9.6,2.3C9.6,1.8,9.3,1.5,8.8,1.5L2.4,1.5ZM37.9,6.1L19.6,6.1C19.1,6.1,18.8,5.8,18.8,5.4C18.8,4.9,19.1,4.6,19.6,4.6L37.9,4.6C38.3,4.6,38.7,4.9,38.7,5.4C38.7,5.8,38.3,6.1,37.9,6.1Z"/></g><g transform="translate(24.78,54.22)" id="shape64"><path fill="#ff5252" d="M7.7,9.2L1.5,9.2C0.6,9.2,0,8.6,0,7.7L0,1.5C0,0.6,0.6,0,1.5,0L7.7,0C8.6,0,9.2,0.6,9.2,1.5L9.2,7.7C9.2,8.6,8.6,9.2,7.7,9.2Z"/></g><g transform="translate(24.01,52.67)" id="shape65"><path fill="#263238" d="M8.7,11.3L2.3,11.3C1,11.3,0,10.2,0,8.9L0,2.4C0,1,1,0,2.3,0L8.7,0C10,0,11.1,1,11.1,2.4L11.1,8.9C11.1,10.2,10,11.3,8.7,11.3ZM2.3,1.6C1.9,1.6,1.5,1.9,1.5,2.4L1.5,8.9C1.5,9.3,1.9,9.7,2.3,9.7L8.7,9.7C9.1,9.7,9.5,9.3,9.5,8.9L9.5,2.4C9.5,1.9,9.1,1.6,8.7,1.6L2.3,1.6ZM43.2,6.4L19.3,6.4C18.9,6.4,18.5,6.1,18.5,5.6C18.5,5.2,18.9,4.8,19.3,4.8L43.2,4.8C43.6,4.8,44,5.2,44,5.6C44,6.1,43.6,6.4,43.2,6.4ZM52.5,35.6L8.7,35.6C8.3,35.6,7.9,35.2,7.9,34.8C7.9,34.3,8.3,34,8.7,34L52.5,34C54.2,34,55.7,32.5,55.7,30.7L55.7,8.9C55.7,8.4,56,8,56.5,8C56.9,8,57.3,8.4,57.3,8.9L57.3,30.7C57.3,33.4,55.1,35.6,52.5,35.6Z"/></g><g transform="translate(11.62,0.77)" id="shape66"><path fill="#263238" d="M3.9,65C3.5,65,3.1,64.7,3.1,64.2L3.1,15.8C3.1,15.6,3.2,15.4,3.3,15.3L18.4,0.2C18.5,0,18.8,0,19,0L64.9,0C67.5,0,69.7,2.1,69.7,4.7L69.7,23C69.7,23.4,69.3,23.8,68.9,23.8C68.4,23.8,68.1,23.4,68.1,23L68.1,4.7C68.1,3,66.6,1.5,64.9,1.5L19.3,1.5L4.7,16.1L4.7,64.2C4.7,64.7,4.3,65,3.9,65ZM7.1,3.9L0.7,3.9C0.3,3.9,0,3.6,0,3.1C0,2.7,0.3,2.3,0.7,2.3L7.1,2.3C7.5,2.3,7.9,2.7,7.9,3.1C7.9,3.6,7.5,3.9,7.1,3.9Z"/></g><g transform="translate(14.72,0.00)" id="shape67"><path fill="#263238" d="M0.7,7.7C0.3,7.7,0,7.3,0,6.9L0,0.7C0,0.3,0.3,0,0.7,0C1.2,0,1.5,0.3,1.5,0.7L1.5,6.9C1.5,7.3,1.2,7.7,0.7,7.7Z"/></g><g transform="translate(0.00,13.94)" id="shape68"><path fill="#263238" d="M6.9,1.5L0.7,1.5C0.3,1.5,0,1.2,0,0.7C0,0.3,0.3,0,0.7,0L6.9,0C7.3,0,7.7,0.3,7.7,0.7C7.7,1.2,7.3,1.5,6.9,1.5Z"/></g><g transform="translate(3.10,10.84)" id="shape69"><path fill="#263238" d="M0.7,7.7C0.3,7.7,0,7.3,0,6.9L0,0.7C0,0.3,0.3,0,0.7,0C1.2,0,1.5,0.3,1.5,0.7L1.5,6.9C1.5,7.3,1.2,7.7,0.7,7.7Z"/></g><g transform="translate(66.61,6.20)" id="shape70"><path fill="#263238" d="M8.5,9.2C8,9.2,7.7,8.9,7.7,8.5L7.7,2.3C7.7,1.8,7.3,1.5,6.9,1.5L0.7,1.5C0.3,1.5,0,1.2,0,0.7C0,0.3,0.3,0,0.7,0L6.9,0C8.2,0,9.2,1,9.2,2.3L9.2,8.5C9.2,8.9,8.9,9.2,8.5,9.2Z"/></g></g><g transform="translate(691.69,641.77)" id="group71"><g transform="translate(63.51,26.33)" id="shape72"><path fill="#263238" d="M17,34C7.6,34,0,26.4,0,17C0,7.6,7.6,0,17,0C26.4,0,34,7.6,34,17C34,26.4,26.4,34,17,34ZM17,1.6C8.5,1.6,1.6,8.5,1.6,17C1.6,25.5,8.5,32.4,17,32.4C25.5,32.4,32.4,25.5,32.4,17C32.4,8.5,25.5,1.6,17,1.6Z"/></g><g transform="translate(4.65,0.00)" id="shape73"><path fill="#263238" d="M2.4,78.4C1.9,78.4,1.6,78,1.6,77.6L1.6,72.8C1.6,72.3,1.9,72,2.4,72C2.8,72,3.2,72.3,3.2,72.8L3.2,77.6C3.2,78,2.8,78.4,2.4,78.4ZM18.4,78.4C18,78.4,17.6,78,17.6,77.6L17.6,72.8C17.6,72.3,18,72,18.4,72C18.9,72,19.2,72.3,19.2,72.8L19.2,77.6C19.2,78,18.9,78.4,18.4,78.4ZM10.4,86.4C10,86.4,9.6,86.1,9.6,85.6L9.6,80.8C9.6,80.3,10,80,10.4,80C10.8,80,11.2,80.3,11.2,80.8L11.2,85.6C11.2,86.1,10.8,86.4,10.4,86.4ZM18.4,86.4C18,86.4,17.6,86.1,17.6,85.6L17.6,80.8C17.6,80.3,18,80,18.4,80C18.9,80,19.2,80.3,19.2,80.8L19.2,85.6C19.2,86.1,18.9,86.4,18.4,86.4ZM10.4,78.4C9.1,78.4,8,77.3,8,76L8,74.4C8,73,9.1,72,10.4,72C11.7,72,12.8,73,12.8,74.4L12.8,76C12.8,77.3,11.7,78.4,10.4,78.4ZM10.4,73.6C10,73.6,9.6,73.9,9.6,74.4L9.6,76C9.6,76.4,10,76.8,10.4,76.8C10.8,76.8,11.2,76.4,11.2,76L11.2,74.4C11.2,73.9,10.8,73.6,10.4,73.6ZM2.4,86.4C1,86.4,0,85.3,0,84L0,82.4C0,81.1,1,80,2.4,80C3.7,80,4.8,81.1,4.8,82.4L4.8,84C4.8,85.3,3.7,86.4,2.4,86.4ZM2.4,81.6C1.9,81.6,1.6,82,1.6,82.4L1.6,84C1.6,84.4,1.9,84.8,2.4,84.8C2.8,84.8,3.2,84.4,3.2,84L3.2,82.4C3.2,82,2.8,81.6,2.4,81.6ZM2.4,94.4C1,94.4,0,93.4,0,92L0,90.4C0,89.1,1,88,2.4,88C3.7,88,4.8,89.1,4.8,90.4L4.8,92C4.8,93.4,3.7,94.4,2.4,94.4ZM2.4,89.6C1.9,89.6,1.6,90,1.6,90.4L1.6,92C1.6,92.5,1.9,92.8,2.4,92.8C2.8,92.8,3.2,92.5,3.2,92L3.2,90.4C3.2,90,2.8,89.6,2.4,89.6ZM10.4,94.4C9.1,94.4,8,93.4,8,92L8,90.4C8,89.1,9.1,88,10.4,88C11.7,88,12.8,89.1,12.8,90.4L12.8,92C12.8,93.4,11.7,94.4,10.4,94.4ZM10.4,89.6C10,89.6,9.6,90,9.6,90.4L9.6,92C9.6,92.5,10,92.8,10.4,92.8C10.8,92.8,11.2,92.5,11.2,92L11.2,90.4C11.2,90,10.8,89.6,10.4,89.6ZM18.4,94.4C17.1,94.4,16,93.4,16,92L16,90.4C16,89.1,17.1,88,18.4,88C19.8,88,20.8,89.1,20.8,90.4L20.8,92C20.8,93.4,19.8,94.4,18.4,94.4ZM18.4,89.6C18,89.6,17.6,90,17.6,90.4L17.6,92C17.6,92.5,18,92.8,18.4,92.8C18.9,92.8,19.2,92.5,19.2,92L19.2,90.4C19.2,90,18.9,89.6,18.4,89.6ZM2.4,56.7C1.9,56.7,1.6,56.3,1.6,55.9L1.6,54.3C1.6,53.9,1.9,53.5,2.4,53.5C2.8,53.5,3.2,53.9,3.2,54.3L3.2,55.9C3.2,56.3,2.8,56.7,2.4,56.7ZM2.4,51.9C1.9,51.9,1.6,51.5,1.6,51.1L1.6,28.6C1.6,28.2,1.9,27.8,2.4,27.8C2.8,27.8,3.2,28.2,3.2,28.6L3.2,51.1C3.2,51.5,2.8,51.9,2.4,51.9ZM84.3,67.9C83.9,67.9,83.5,67.6,83.5,67.1L83.5,65.5C83.5,65.1,83.9,64.7,84.3,64.7C84.8,64.7,85.1,65.1,85.1,65.5L85.1,67.1C85.1,67.6,84.8,67.9,84.3,67.9ZM84.3,93.6C83.9,93.6,83.5,93.3,83.5,92.8L83.5,70.4C83.5,69.9,83.9,69.6,84.3,69.6C84.8,69.6,85.1,69.9,85.1,70.4L85.1,92.8C85.1,93.3,84.8,93.6,84.3,93.6ZM25.7,17.4L10.4,17.4C10.1,17.4,9.8,17.2,9.7,16.9C9.5,16.6,9.6,16.2,9.8,16L25.1,0.8C25.1,0.4,25.3,0.1,25.7,0C26,0,26.4,0,26.6,0.4C26.8,0.7,26.7,1.1,26.5,1.3L26.5,16.6C26.5,17,26.1,17.4,25.7,17.4ZM12.3,15.8L24.9,15.8L24.9,3.3L12.3,15.8Z"/></g><g transform="translate(24.78,22.46)" id="shape74"><path fill="#ff5252" d="M7.7,9.2L1.5,9.2C0.6,9.2,0,8.6,0,7.7L0,1.5C0,0.6,0.6,0,1.5,0L7.7,0C8.6,0,9.2,0.6,9.2,1.5L9.2,7.7C9.2,8.6,8.6,9.2,7.7,9.2Z"/></g><g transform="translate(23.23,21.69)" id="shape75"><path fill="#263238" d="M8.9,10.8L2.4,10.8C1,10.8,0,9.8,0,8.5L0,2.3C0,1,1,0,2.4,0L8.9,0C10.2,0,11.3,1,11.3,2.3L11.3,8.5C11.3,9.8,10.2,10.8,8.9,10.8ZM2.4,1.5C1.9,1.5,1.6,1.8,1.6,2.3L1.6,8.5C1.6,8.9,1.9,9.2,2.4,9.2L8.9,9.2C9.3,9.2,9.7,8.9,9.7,8.5L9.7,2.3C9.7,1.8,9.3,1.5,8.9,1.5L2.4,1.5ZM44.1,6.1L19.7,6.1C19.3,6.1,18.9,5.8,18.9,5.4C18.9,4.9,19.3,4.6,19.7,4.6L44.1,4.6C44.5,4.6,44.9,4.9,44.9,5.4C44.9,5.8,44.5,6.1,44.1,6.1Z"/></g><g transform="translate(24.78,38.73)" id="shape76"><path fill="#ff5252" d="M7.7,9.2L1.5,9.2C0.6,9.2,0,8.6,0,7.7L0,1.5C0,0.6,0.6,0,1.5,0L7.7,0C8.6,0,9.2,0.6,9.2,1.5L9.2,7.7C9.2,8.6,8.6,9.2,7.7,9.2Z"/></g><g transform="translate(23.23,37.95)" id="shape77"><path fill="#263238" d="M8.8,10.8L2.4,10.8C1,10.8,0,9.8,0,8.5L0,2.3C0,1,1,0,2.4,0L8.8,0C10.2,0,11.2,1,11.2,2.3L11.2,8.5C11.2,9.8,10.2,10.8,8.8,10.8ZM2.4,1.5C1.9,1.5,1.6,1.8,1.6,2.3L1.6,8.5C1.6,8.9,1.9,9.2,2.4,9.2L8.8,9.2C9.3,9.2,9.6,8.9,9.6,8.5L9.6,2.3C9.6,1.8,9.3,1.5,8.8,1.5L2.4,1.5ZM37.9,6.1L19.6,6.1C19.1,6.1,18.8,5.8,18.8,5.4C18.8,4.9,19.1,4.6,19.6,4.6L37.9,4.6C38.3,4.6,38.7,4.9,38.7,5.4C38.7,5.8,38.3,6.1,37.9,6.1Z"/></g><g transform="translate(24.78,54.22)" id="shape78"><path fill="#ff5252" d="M7.7,9.2L1.5,9.2C0.6,9.2,0,8.6,0,7.7L0,1.5C0,0.6,0.6,0,1.5,0L7.7,0C8.6,0,9.2,0.6,9.2,1.5L9.2,7.7C9.2,8.6,8.6,9.2,7.7,9.2Z"/></g><g transform="translate(24.01,52.67)" id="shape79"><path fill="#263238" d="M8.7,11.3L2.3,11.3C1,11.3,0,10.2,0,8.9L0,2.4C0,1,1,0,2.3,0L8.7,0C10,0,11.1,1,11.1,2.4L11.1,8.9C11.1,10.2,10,11.3,8.7,11.3ZM2.3,1.6C1.9,1.6,1.5,1.9,1.5,2.4L1.5,8.9C1.5,9.3,1.9,9.7,2.3,9.7L8.7,9.7C9.1,9.7,9.5,9.3,9.5,8.9L9.5,2.4C9.5,1.9,9.1,1.6,8.7,1.6L2.3,1.6ZM43.2,6.4L19.3,6.4C18.9,6.4,18.5,6.1,18.5,5.6C18.5,5.2,18.9,4.8,19.3,4.8L43.2,4.8C43.6,4.8,44,5.2,44,5.6C44,6.1,43.6,6.4,43.2,6.4ZM52.5,35.6L8.7,35.6C8.3,35.6,7.9,35.2,7.9,34.8C7.9,34.3,8.3,34,8.7,34L52.5,34C54.2,34,55.7,32.5,55.7,30.7L55.7,8.9C55.7,8.4,56,8,56.5,8C56.9,8,57.3,8.4,57.3,8.9L57.3,30.7C57.3,33.4,55.1,35.6,52.5,35.6Z"/></g><g transform="translate(11.62,0.77)" id="shape80"><path fill="#263238" d="M3.9,65C3.5,65,3.1,64.7,3.1,64.2L3.1,15.8C3.1,15.6,3.2,15.4,3.3,15.3L18.4,0.2C18.5,0,18.8,0,19,0L64.9,0C67.5,0,69.7,2.1,69.7,4.7L69.7,23C69.7,23.4,69.3,23.8,68.9,23.8C68.4,23.8,68.1,23.4,68.1,23L68.1,4.7C68.1,3,66.6,1.5,64.9,1.5L19.3,1.5L4.7,16.1L4.7,64.2C4.7,64.7,4.3,65,3.9,65ZM7.1,3.9L0.7,3.9C0.3,3.9,0,3.6,0,3.1C0,2.7,0.3,2.3,0.7,2.3L7.1,2.3C7.5,2.3,7.9,2.7,7.9,3.1C7.9,3.6,7.5,3.9,7.1,3.9Z"/></g><g transform="translate(14.72,0.00)" id="shape81"><path fill="#263238" d="M0.7,7.7C0.3,7.7,0,7.3,0,6.9L0,0.7C0,0.3,0.3,0,0.7,0C1.2,0,1.5,0.3,1.5,0.7L1.5,6.9C1.5,7.3,1.2,7.7,0.7,7.7Z"/></g><g transform="translate(0.00,13.94)" id="shape82"><path fill="#263238" d="M6.9,1.5L0.7,1.5C0.3,1.5,0,1.2,0,0.7C0,0.3,0.3,0,0.7,0L6.9,0C7.3,0,7.7,0.3,7.7,0.7C7.7,1.2,7.3,1.5,6.9,1.5Z"/></g><g transform="translate(3.10,10.84)" id="shape83"><path fill="#263238" d="M0.7,7.7C0.3,7.7,0,7.3,0,6.9L0,0.7C0,0.3,0.3,0,0.7,0C1.2,0,1.5,0.3,1.5,0.7L1.5,6.9C1.5,7.3,1.2,7.7,0.7,7.7Z"/></g><g transform="translate(66.61,6.20)" id="shape84"><path fill="#263238" d="M8.5,9.2C8,9.2,7.7,8.9,7.7,8.5L7.7,2.3C7.7,1.8,7.3,1.5,6.9,1.5L0.7,1.5C0.3,1.5,0,1.2,0,0.7C0,0.3,0.3,0,0.7,0L6.9,0C8.2,0,9.2,1,9.2,2.3L9.2,8.5C9.2,8.9,8.9,9.2,8.5,9.2Z"/></g></g><g transform="translate(101.55,571.77)" id="shape85"><text xmlns="http://www.w3.org/2000/svg" xml:space="preserve"><tspan x="17.9375" y="43.007799999999406" textLength="84.109375" style="fill:rgb(69, 69, 69);font-family:&quot;Microsoft YaHei&quot;;font-size:10pt;font-weight:bold;">Citi Contract</tspan></text></g><g transform="translate(246.29,571.77)" id="shape86"><text xmlns="http://www.w3.org/2000/svg" xml:space="preserve"><tspan x="23.625" y="43.007799999999406" textLength="72.75" style="fill:rgb(69, 69, 69);font-family:&quot;Microsoft YaHei&quot;;font-size:10pt;font-weight:bold;">JPContract</tspan></text></g><g transform="translate(391.02,571.77)" id="shape87"><text xmlns="http://www.w3.org/2000/svg" xml:space="preserve"><tspan x="29.390625" y="34.51559999999881" textLength="65.203125" style="fill:rgb(69, 69, 69);font-family:&quot;Microsoft YaHei&quot;;font-size:10pt;font-weight:bold;">Goldman </tspan><tspan x="31.140625" y="51.49997499999881" textLength="57.703125" style="fill:rgb(69, 69, 69);font-family:&quot;Microsoft YaHei&quot;;font-size:10pt;font-weight:bold;">Contract</tspan></text></g><g transform="translate(535.75,571.77)" id="shape88"><text xmlns="http://www.w3.org/2000/svg" xml:space="preserve"><tspan x="32.390625" y="34.51559999999881" textLength="59.203125" style="fill:rgb(69, 69, 69);font-family:&quot;Microsoft YaHei&quot;;font-size:10pt;font-weight:bold;">Barclays </tspan><tspan x="31.140625" y="51.49997499999881" textLength="57.703125" style="fill:rgb(69, 69, 69);font-family:&quot;Microsoft YaHei&quot;;font-size:10pt;font-weight:bold;">Contract</tspan></text></g><g transform="translate(680.48,571.77)" id="shape89"><text xmlns="http://www.w3.org/2000/svg" xml:space="preserve"><tspan x="14.609375" y="43.007799999999406" textLength="90.78125" style="fill:rgb(69, 69, 69);font-family:&quot;Microsoft YaHei&quot;;font-size:10pt;font-weight:bold;">BNY Contract</tspan></text></g><g transform="translate(823.47,548.25)" id="shape90"><path fill="#ffffff" d="M0,0L3,0L3,207L0,207L0,0Z" stroke="#000000"/></g><g transform="matrix(-1.00,0.00,0.00,1.00,715.1,336.2)" id="shape91"><path fill="#467dfe" d="M26.3,0L26.3,82.3L41.8,78.2L20.9,107.5L0,78.2L15.4,82.3L15.4,0L26.3,0" stroke="#467dfe"/></g><g transform="translate(83.33,459.75)" id="group92"><g transform="matrix(1.00,0.00,0.00,1.00,0.0,0.0)" id="shape93"><path fill="#89a3fe" d="M11.3,0L894.6,0C900.9,0,906,5,906,11.3L906,33.6C906,39.9,900.9,45,894.6,45L11.3,45C5,45,0,39.9,0,33.6L0,11.3C0,5,5,0,11.3,0Z" stroke="#4155c6"/></g></g><g transform="matrix(1.00,0.00,0.00,-1.00,162.8,443.7)" id="shape94"><path fill="#467dfe" d="M26.3,0L26.3,82.3L41.8,78.2L20.9,107.5L0,78.2L15.4,82.3L15.4,0L26.3,0" stroke="#467dfe"/></g><g transform="translate(204.68,349.99)" id="shape95"><text xmlns="http://www.w3.org/2000/svg" xml:space="preserve"><tspan x="6.78125" y="34.51559999999881" textLength="167.671875" style="fill:rgb(69, 69, 69);font-family:&quot;Microsoft YaHei&quot;;font-size:10pt;font-weight:bold;">Bank contracts recorded </tspan><tspan x="21.71875" y="51.49997499999881" textLength="133.8125" style="fill:rgb(69, 69, 69);font-family:&quot;Microsoft YaHei&quot;;font-size:10pt;font-weight:bold;">in Contract Registry</tspan></text></g><g transform="translate(732.52,349.99)" id="shape96"><text xmlns="http://www.w3.org/2000/svg" xml:space="preserve"><tspan x="18.5" y="34.51559999999881" textLength="140.984375" style="fill:rgb(69, 69, 69);font-family:&quot;Microsoft YaHei&quot;;font-size:10pt;font-weight:bold;">Tokenized cash used </tspan><tspan x="38.234375" y="51.49997499999881" textLength="101.53125" style="fill:rgb(69, 69, 69);font-family:&quot;Microsoft YaHei&quot;;font-size:10pt;font-weight:bold;">to settle claims</tspan></text></g><g transform="translate(851.02,523.25)" id="shape97"><text xmlns="http://www.w3.org/2000/svg" xml:space="preserve"><tspan x="4.328125" y="56.07837499999732" textLength="0" style="fill:rgb(0, 0, 0);font-family:&quot;Helvetica Neue&quot;, Helvetica, &quot;PingFang SC&quot;, &quot;Hiragino Sans GB&quot;, &quot;Microsoft YaHei&quot;, &quot;\5 FAE8F6F96C59ED1&quot;, Arial, sans-serif;font-size:10pt;font-weight:normal;">•</tspan><tspan x="4" y="39.09399999999732" textLength="82.34375" style="fill:rgb(69, 69, 69);font-family:&quot;Microsoft YaHei&quot;;font-size:10pt;font-weight:bold;">Data stored:</tspan><tspan x="4.328125" y="73.06274999999732" textLength="0" style="fill:rgb(0, 0, 0);font-family:&quot;Helvetica Neue&quot;, Helvetica, &quot;PingFang SC&quot;, &quot;Hiragino Sans GB&quot;, &quot;Microsoft YaHei&quot;, &quot;\5 FAE8F6F96C59ED1&quot;, Arial, sans-serif;font-size:10pt;font-weight:normal;">•</tspan><tspan x="22.328125" y="56.07837499999732" textLength="145.1875" style="fill:rgb(69, 69, 69);font-family:&quot;Microsoft YaHei&quot;;font-size:10pt;font-weight:bold;">Encrypted Claim Data</tspan><tspan x="4.328125" y="90.04712499999732" textLength="0" style="fill:rgb(0, 0, 0);font-family:&quot;Helvetica Neue&quot;, Helvetica, &quot;PingFang SC&quot;, &quot;Hiragino Sans GB&quot;, &quot;Microsoft YaHei&quot;, &quot;\5 FAE8F6F96C59ED1&quot;, Arial, sans-serif;font-size:10pt;font-weight:normal;">•</tspan><tspan x="22.328125" y="73.06274999999732" textLength="97.53125" style="fill:rgb(69, 69, 69);font-family:&quot;Microsoft YaHei&quot;;font-size:10pt;font-weight:bold;">Amount Owed</tspan><tspan x="4.328125" y="107.03149999999732" textLength="0" style="fill:rgb(0, 0, 0);font-family:&quot;Helvetica Neue&quot;, Helvetica, &quot;PingFang SC&quot;, &quot;Hiragino Sans GB&quot;, &quot;Microsoft YaHei&quot;, &quot;\5 FAE8F6F96C59ED1&quot;, Arial, sans-serif;font-size:10pt;font-weight:normal;">•</tspan><tspan x="22.328125" y="90.04712499999732" textLength="26.1875" style="fill:rgb(69, 69, 69);font-family:&quot;Microsoft YaHei&quot;;font-size:10pt;font-weight:bold;">CCY</tspan><tspan x="4.328125" y="124.01587499999732" textLength="0" style="fill:rgb(0, 0, 0);font-family:&quot;Helvetica Neue&quot;, Helvetica, &quot;PingFang SC&quot;, &quot;Hiragino Sans GB&quot;, &quot;Microsoft YaHei&quot;, &quot;\5 FAE8F6F96C59ED1&quot;, Arial, sans-serif;font-size:10pt;font-weight:normal;">•</tspan><tspan x="22.328125" y="107.03149999999732" textLength="77.125" style="fill:rgb(69, 69, 69);font-family:&quot;Microsoft YaHei&quot;;font-size:10pt;font-weight:bold;">CP Account</tspan><tspan x="22.328125" y="124.01587499999732" textLength="76.03125" style="fill:rgb(69, 69, 69);font-family:&quot;Microsoft YaHei&quot;;font-size:10pt;font-weight:bold;">CP Address</tspan><tspan x="4" y="156.98462499999732" textLength="68.921875" style="fill:rgb(69, 69, 69);font-family:&quot;Microsoft YaHei&quot;;font-size:10pt;font-weight:bold;">Functions:</tspan><tspan x="4" y="173.96899999999732" textLength="132.59375" style="fill:rgb(69, 69, 69);font-family:&quot;Microsoft YaHei&quot;;font-size:10pt;font-weight:bold;">Add Claims (owner)</tspan><tspan x="4" y="190.95337499999732" textLength="188.75" style="fill:rgb(69, 69, 69);font-family:&quot;Microsoft YaHei&quot;;font-size:10pt;font-weight:bold;">Settle Claims (counterparty)</tspan><tspan x="4" y="207.93774999999732" textLength="170.6875" style="fill:rgb(69, 69, 69);font-family:&quot;Microsoft YaHei&quot;;font-size:10pt;font-weight:bold;">Get Claims Data (anyone)</tspan><tspan x="4" y="223.92212499999732" textLength="0" style="fill:rgb(0, 0, 0);font-family:Arial;font-size:10pt;font-weight:normal;"></tspan></text></g></g></svg>